<?xml version="1.0" standalone="no"?>
<!DOCTYPE svg PUBLIC "-//W3C//DTD SVG 1.1//EN" "http://www.w3.org/Graphics/SVG/1.1/DTD/svg11.dtd" >
<!--
2013-9-30: Created.
-->
<svg>
<metadata>
Created by iconfont
</metadata>
<defs>

<font id="iconfont" horiz-adv-x="1024" >
  <font-face
    font-family="iconfont"
    font-weight="500"
    font-stretch="normal"
    units-per-em="1024"
    ascent="896"
    descent="-128"
  />
    <missing-glyph />
    
    <glyph glyph-name="login" unicode="&#58880;" d="M512.894976 42.31552c-45.82912 0-153.570304 115.16928-153.570304 115.16928s-166.2464-25.53856-223.90272-63.978496c-57.696256-38.437888-83.197952-242.163712-83.197952-242.163712l922.89536 0c0 0-16.891904 196.927488-84.788224 242.163712-57.65632 38.438912-223.90272 63.978496-223.90272 63.978496S558.613504 42.31552 512.894976 42.31552zM516.48 749.143808c129.434624 0 234.326016-119.788544 234.326016-267.55584S645.914624 214.0352 516.48 214.0352 282.116096 333.820672 282.116096 481.587968 387.044352 749.143808 516.48 749.143808z"  horiz-adv-x="1024" />

    
    <glyph glyph-name="chaxun" unicode="&#59021;" d="M933.602-19.47 721.175 194.738c-2.472 2.479-5.204 4.372-7.813 6.435 35.884 55.518 56.836 121.647 56.836 192.878 0 195.694-157.298 354.31-351.461 354.31-194.054 0-351.461-158.616-351.461-354.31 0-195.722 157.407-354.302 351.461-354.302 70.631 0 136.303 21.179 191.459 57.361 2.009-2.692 3.852-5.369 6.283-7.827l212.454-214.235c14.506-14.579 33.396-21.849 52.314-21.849 18.932 0 37.836 7.268 52.328 21.814C962.436-95.824 962.436-48.61 933.602-19.47M418.737 151.63c-132.562 0-240.468 108.767-240.468 242.421 0 133.634 107.907 242.428 240.468 242.428 132.561 0 240.467-108.794 240.467-242.428C659.204 260.398 551.298 151.63 418.737 151.63"  horiz-adv-x="1024" />

    
    <glyph glyph-name="tejia" unicode="&#58890;" d="M866.875938 474.933171c1.201361 4.797259 1.856277 9.82067 1.856277 15.052834L868.732216 627.46617c0.004093 43.696198-48.074925 91.650373-92.451622 91.650373L637.615441 719.116543c-27.821649 0-66.175165-9.843182-90.924849-27.953655-9.609869-5.334495-18.0941-11.42726-24.635073-17.869996L178.386318 333.871435c-31.367405-30.898731-31.367405-80.992639 0-111.897509l181.88756-167.344333c31.371498-30.899754 107.289562-30.899754 138.671293 0L845.613682 398.335632C866.169857 418.580722 873.255229 448.2126 866.875938 474.933171zM547.711851 344.917002l53.667294-53.667294-27.78481-27.779693-53.335742 53.337789-40.244586-40.249703 53.499471-53.501518-26.627451-26.626427-53.748135 53.752228-53.998845-53.999868-53.990658 53.990658 53.870932 53.875025-55.109132 55.110155 26.872021 26.872021 55.109132-55.110155 40.248679 40.249703-55.232952 55.232952 27.368324 27.373441 54.992475-54.987359 44.36851 176.145789 35.33988-35.337833-36.694737-153.196101 152.279219 37.608549 34.014698-34.016745L547.711851 344.917002zM799.395034 558.723529c-20.921495-20.597107-71.52501-20.597107-92.451622 0-20.908192 20.602224-20.908192 71.053266 0 91.650373 20.925588 20.6012 71.529103 20.6012 92.451622 0C820.315506 629.776795 820.315506 579.325753 799.395034 558.723529zM361.801674-18.272787c36.906561-38.721907 91.290169-48.582485 140.097782 1.636267L783.272845 262.109018l-174.953637-331.080487c-19.413142-37.039591-72.623018-62.839187-110.219287-43.718711l-220.449831 109.278869c-33.92874 17.257036-51.890834 36.826743-30.402427 90.622974L361.801674-18.272787z"  horiz-adv-x="1024" />

    
    <glyph glyph-name="weixinzhifu2" unicode="&#58937;" d="M896.002399 896 127.997601 896C57.597193 896 0 838.402807 0 768.002399l0-768.004799c0-70.400408 57.597193-127.997601 127.997601-127.997601l768.004799 0c70.400408 0 127.997601 57.597193 127.997601 127.997601L1024 768.002399C1024 838.402807 966.402807 896 896.002399 896L896.002399 896zM512.003199 108.796137c-44.800376 0-83.203623 6.400968-121.603031 19.205463-25.600032-12.803215-63.99944-44.800376-76.801376-51.201344-25.601312-12.803215-19.199064 12.796817-19.199064 12.796817l12.801936 76.801376c-76.802655 51.201344-121.603031 134.399848-121.603031 224.0006 0 159.99988 147.197945 288.002599 326.403287 288.002599 108.798536 0 211.196105-51.201344 268.799696-121.601752L460.801856 409.598112c0 0-25.601312-12.798096-51.201344 6.400968l-51.201344 38.399408c0 0-38.399408 32.001-19.200344-19.200344l51.201344-115.200784c0 0 6.400968-31.995881 44.800376-12.798096 32.002279 12.798096 268.799696 159.99988 371.201104 217.598352 19.199064-38.399408 31.997161-83.198504 31.997161-127.997601C838.400088 243.201104 691.202143 108.796137 512.003199 108.796137L512.003199 108.796137zM512.003199 108.796137"  horiz-adv-x="1024" />

    
    <glyph glyph-name="iconsimqia" unicode="&#58899;" d="M829.736063-211.998977l-641.541355 0c-19.161409 0-34.678824 15.517415-34.678824 34.6778L153.515884 776.322429c0 19.161409 15.517415 34.678824 34.678824 34.678824l449.53125 0 226.686882-235.741096 0-752.581334C864.413863-196.481562 848.877005-211.998977 829.736063-211.998977L829.736063-211.998977 829.736063-211.998977zM829.736063 550.91775 621.667214 776.322429l-433.472506 0 0-953.643606 641.541355 0L829.736063 550.91775 829.736063 550.91775 829.736063 550.91775zM326.906933 360.186777l364.116905 0c19.161409 0 34.6778-15.518438 34.6778-34.6778l0-364.117928c0-19.160385-15.516392-34.6778-34.6778-34.6778L326.906933-73.286752c-19.161409 0-34.678824 15.517415-34.678824 34.6778L292.228109 325.508977C292.229133 344.668339 307.746548 360.186777 326.906933 360.186777L326.906933 360.186777 326.906933 360.186777zM309.565986-38.608951c0-9.570983 7.770987-17.339924 17.34197-17.339924l364.116905 0c9.570983 0 17.340947 7.769964 17.340947 17.339924L708.365808 325.508977c0 9.570983-7.770987 17.340947-17.340947 17.340947L326.906933 342.849924c-9.570983 0-17.34197-7.769964-17.34197-17.340947L309.564963-38.608951 309.565986-38.608951 309.565986-38.608951zM309.565986-38.608951"  horiz-adv-x="1024" />

    
    <glyph glyph-name="tongzhi" unicode="&#58897;" d="M832 384l192 0 0-64-192 0 0 64ZM1027.904 738.24 1011.328 800.064 828.096 733.76 844.672 671.936ZM828.096-29.76 1011.328-96.064 1027.904-34.24 844.672 32.064ZM224 640l-128 0C43.008 640 0 596.992 0 544l0-320C0 171.008 43.008 128 96 128l128 0c31.36 0 59.008 15.296 76.48 38.592L704-64 704 832 300.48 601.408C283.008 624.704 255.36 640 224 640zM224 192l-128 0C78.336 192 64 206.336 64 224l0 320C64 561.664 78.336 576 96 576l128 0C241.664 576 256 561.664 256 544l0-320C256 206.336 241.664 192 224 192zM640 46.272 320 229.12 320 538.88l320 182.848L640 46.272z"  horiz-adv-x="1028" />

    
    <glyph glyph-name="shezhi" unicode="&#59134;" d="M1008.123902 282.371319 1008.123902 469.519415l-110.318358 18.360373c-8.563273 30.238364-20.651769 59.36175-36.102322 86.963246l65.076641 91.042434L794.455043 798.215324l-91.018261-65.038367c-27.619626 15.407243-56.757113 27.497754-86.999505 36.102322L598.078918 879.545262l-187.111836 0.003022L392.607716 769.280286c-30.28671-8.605575-59.379879-20.695079-87.00152-36.102322l-91.013225 65.038367L82.265129 665.90259l65.076641-91.059556c-15.448539-27.623655-27.536028-56.740997-36.101315-86.963246L0.923105 469.494235 0.923105 282.371319l110.317351-18.358359c8.604568-30.246421 20.696086-59.384915 36.101315-86.966267l-65.076641-91.062578 132.325827-132.331871 91.056534 65.079663c27.580345-15.409257 56.673514-27.456458 86.960224-36.106351l18.316056-110.284113 187.196442 0 18.318071 110.284113c30.242393 8.649892 59.379879 20.696086 86.960224 36.106351l91.056534-65.079663 132.323813 132.373166-65.076641 91.021282c15.40825 27.586388 27.49574 56.72186 36.102322 86.966267L1008.123902 282.371319zM846.416844 319.297536l-4.672433-20.612488c-8.606582-37.663493-23.48202-73.486818-44.218395-106.474857l-11.228342-17.909145 58.274973-81.512242-56.922295-56.928338-81.508214 58.320298-17.90713-11.269637c-32.99106-20.740403-68.805321-35.612819-106.464785-44.179114l-20.571193-4.71675-16.434594-98.7244-80.484891 0-16.43258 98.7244-20.571193 4.71675c-37.662485 8.604568-73.520056 23.440725-106.467806 44.179114l-17.866842 11.269637-81.548502-58.316269-56.923302 56.924309 58.274973 81.512242-11.227335 17.913174c-20.737382 32.985017-35.611812 68.808343-44.217387 106.427518l-4.67344 20.612488-98.758645 16.456753 0 80.448632 98.720371 16.471861 4.711714 20.574214c8.562265 37.641334 23.43871 73.46466 44.217387 106.493994l11.227335 17.869864-58.274973 81.534401 56.923302 56.882006 81.507206-58.237707 17.866842 11.234385c32.989046 20.733353 68.807335 35.609798 106.509102 44.21638l20.571193 4.715742 16.471861 98.683105 80.4023 0 16.477904-98.683105 20.571193-4.715742c37.700759-8.606582 73.516027-23.483027 106.50608-44.21638l17.866842-11.234385 81.508214 58.258858 56.922295-56.903158-58.274973-81.514257 11.228342-17.890008c20.778677-33.013219 35.653108-68.851652 44.218395-106.493994l4.712721-20.591337 98.722386-16.41445 0-80.48892L846.416844 319.297536zM504.523504 627.748588c-138.841449 0-251.781566-112.946161-251.781566-251.793652 0-138.829362 112.940117-251.820847 251.781566-251.820847 138.838427 0 251.779552 112.991485 251.779552 251.820847C756.303055 514.803434 643.361931 627.748588 504.523504 627.748588zM504.523504 187.08653c-104.132094 0-188.838189 84.752427-188.838189 188.868405 0 104.138137 84.705088 188.847254 188.838189 188.847254 104.129072 0 188.83416-84.709117 188.83416-188.847254C693.359678 271.83795 608.652576 187.08653 504.523504 187.08653z"  horiz-adv-x="1024" />

    
    <glyph glyph-name="7liushuifenchengtongyong" unicode="&#59736;" d="M187.820178 374.793314c-15.796778 0-28.578896-12.799514-28.578896-28.577872l0-38.10383c0-15.786545 12.782118-28.577872 28.578896-28.577872l106.219183 0c-0.744967 9.451256-1.432629 18.931165-1.432629 28.577872 0 22.820752 2.363837 45.072545 6.493901 66.682725L187.820178 374.794337zM178.293197 612.945319l0-38.10383c0-15.786545 12.782118-28.577872 28.578896-28.577872l178.892343 0c39.480176 42.942021 89.305979 76.04086 145.717779 95.260597L206.872093 641.524215C191.076338 641.524215 178.293197 628.732887 178.293197 612.945319zM149.716348 679.628044l419.147242 0c15.795754 0 28.577872 12.791327 28.577872 28.577872l0 38.10383c0 15.786545-12.782118 28.577872-28.577872 28.577872L149.716348 774.887618c-15.796778 0-28.578896-12.791327-28.578896-28.577872l0-38.10383C121.137453 692.419372 133.919571 679.628044 149.716348 679.628044zM355.028411 508.158764 92.558557 508.158764c-15.795754 0-28.577872-12.791327-28.577872-28.577872l0-38.104853c0-15.786545 12.782118-28.577872 28.577872-28.577872l215.881792 0C319.119573 447.235207 335.025844 479.217618 355.028411 508.158764zM130.662387 241.428887c-15.795754 0-28.577872-12.791327-28.577872-28.577872l0-38.10383c0-15.787568 12.782118-28.588105 28.577872-28.588105l201.555505 0c-15.331173 29.582759-26.643823 61.538565-33.118282 95.269807L130.662387 241.428887zM645.07125 622.471276c-173.609013 0-314.359664-140.741441-314.359664-314.359664 0-173.6172 140.750651-314.369897 314.359664-314.369897 173.60799 0 314.358641 140.752698 314.358641 314.369897C959.429891 481.729835 818.679239 622.471276 645.07125 622.471276zM787.962657 203.325058l-114.313535 0 0-95.27083-57.156768 0 0 95.27083L502.179842 203.325058l0 57.155744 114.311489 0 0 57.155744-95.259574 0 0 57.156768 95.259574 0-85.733617 105.419981 57.155744 27.945469 57.156768-83.827197 57.155744 83.827197 57.155744-27.945469-85.733617-105.419981 95.261621 0 0-57.156768-95.261621 0 0-57.155744 114.313535 0L787.961634 203.325058z"  horiz-adv-x="1024" />

    
    <glyph glyph-name="shaixuan" unicode="&#59090;" d="M597.980233-63.580828c-0.276293 0.483001-0.414439 1.069355-0.793062 1.413186-7.637957 6.677073-10.809183 15.175631-10.773368 25.230638 0.103354 18.622126 0.033769 37.273928 0.033769 55.897078 0 127.668705 0.069585 255.337409-0.103354 383.006114-0.033769 12.113899 3.959172 21.547759 12.462846 30.012547 84.092233 83.885526 168.08009 167.941943 252.063853 251.9298 7.054673 7.090489 12.806677 14.94027 15.627932 24.817222 8.503675 29.326932-13.284561 59.826574-43.852764 61.165058-1.614777 0.069585-3.269463 0.069585-4.88424 0.069585L206.199269 769.960399c-22.818705 0-40.957831-12.147668-47.88152-32.562627-5.435803-16.072047-2.89084-31.218002 7.366781-44.813648 3.40761-4.475941 7.193843-8.640798 11.153014-12.599969 80.063477-80.167854 160.161746-160.334685 240.398162-240.364393 8.400321-8.359388 12.255115-17.759479 12.221346-29.636994-0.206708-86.98205-0.172939-173.999916-0.069585-260.946151 0-13.284561-4.78498-23.645536-16.697287-29.976732-18.996656-10.124592-42.714847 2.958378-44.467771 24.333198-0.172939 2.339278-0.172939 4.752234-0.172939 7.090489 0 82.127486-0.033769 164.225295 0.069585 246.317988 0 3.578502-1.033539 6.021134-3.545756 8.503675-79.034031 78.926584-158.133553 157.818375-236.921991 236.986459-21.478174 21.546735-33.389458 47.880497-33.492812 78.689177-0.172939 51.594075 34.45779 94.485955 81.614809 106.461707 9.911744 2.517333 20.444635 3.718695 30.66644 3.752464 203.739241 0.172939 407.40992 0.172939 611.115392 0.103354 42.646286 0 75.312266-18.415418 97.549733-54.867632 22.098297-36.281321 19.030425-86.775342-7.090489-120.264061-4.545526-5.819542-9.434883-11.428284-14.663978-16.627702-80.615039-80.718393-161.265894-161.364131-241.984287-241.909585-2.614547-2.614547-3.682879-5.130857-3.682879-8.883321 0.069585-139.230018-0.033769-278.431384 0.206708-417.627632 0.034792-13.254885-1.3743-25.304316-11.69946-34.733059C623.417579-63.580828 610.718349-63.580828 597.980233-63.580828L597.980233-63.580828zM597.980233-63.580828"  horiz-adv-x="1024" />

    
    <glyph glyph-name="fanhui" unicode="&#58898;" d="M769.939394 742.231919 692.459313 819.717172 330.313697 457.570263l-0.182303 0.166788L253.414141 381.040485l0.182303-0.182303L253.414141 380.691394l77.485253-77.485253 0.161616 0.166788 357.01398-357.015273 76.717253 76.737939L407.778263 380.091475 769.939394 742.231919zM769.939394 742.231919"  horiz-adv-x="1024" />

    
    <glyph glyph-name="wuliu-copy" unicode="&#58882;" d="M1007.515 542.055c-7.349 10.969-19.731 17.539-32.968 17.539h-39.621c-21.907 0-39.621-17.622-39.621-39.398v-236.293c0-21.779 17.714-39.396 39.621-39.396h158.48c21.905 0 39.619 17.617 39.619 39.396v59.080c0 7.764-2.315 15.382-6.65 21.843l-118.861 177.229zM1093.406 283.904h-158.48v236.309h39.621l118.861-177.23v-59.078zM1271.538 388.828l-158.48 236.306c-22.128 32.955-59.114 52.605-98.894 52.605h-158.48v78.781c0 65.161-53.318 118.147-118.862 118.147h-594.302c-65.558 0-118.861-52.986-118.861-118.147v-433.234c0-65.161 53.303-118.164 118.861-118.164h0.016v-118.146c0-65.16 53.318-118.163 118.861-118.163h45.223c17.683-67.764 79.209-118.146 152.862-118.146 73.605 0 135.115 50.381 152.846 118.146h209.307c17.73-67.764 79.241-118.146 152.91-118.146 73.589 0 135.115 50.381 152.829 118.146h45.271c65.541 0 118.861 53.003 118.861 118.163v236.31c0 23.382-6.889 46.079-19.968 65.542zM126.266 267.649c-21.857 0-39.619 33.873-39.619 55.638v433.232c0 21.763 17.762 55.638 39.619 55.638h626.814c21.905 0 39.619-33.875 39.619-55.638v-433.234c0-21.763-17.714-55.638-39.619-55.638h-626.814zM462.53-84.329l-8.112 0.062c-49.413 0-89.399 40.047-89.399 89.43 0 49.399 39.986 89.447 89.399 89.447 49.319 0 89.4-40.047 89.4-89.447 0.002-49.382-37.571-89.492-81.288-89.492zM982.673-84.329l-8.126 0.062c-49.414 0-89.385 40.047-89.385 89.43 0 49.399 39.969 89.447 89.385 89.447 49.333 0 89.399-40.047 89.399-89.447-0.002-49.382-37.557-89.492-81.272-89.492zM1172.647 47.58h-45.271c-17.716 67.779-79.241 118.16-152.829 118.16-73.669 0-135.181-50.381-152.91-118.16h-209.308c-17.73 67.779-79.241 118.16-152.846 118.16-73.655 0-135.179-50.381-152.862-118.16h-45.223c-21.905 0-39.621 17.617-39.621 39.396v118.146h515.046c65.542 0 118.862 53.003 118.862 118.164v275.691h158.48c13.237 0 25.62-6.572 32.969-17.539l158.481-236.31c4.333-6.461 20.873-31.59 20.873-39.351v-211.308l2.032-7.493c0-21.779-33.97-39.396-55.874-39.396z"  horiz-adv-x="1315" />

    
    <glyph glyph-name="fenxiang" unicode="&#58927;" d="M780.889344 265.7792c-67.968 0-127.4624-36.352-161.5616-91.008l-205.6192 120.576A197.3504 197.3504 0 0 1 435.186944 384c0 19.84-3.6352 38.5024-9.0112 56.6016l213.8624 125.44c35.0976-39.04 84.9152-63.872 140.8-63.872 105.9072 0 191.9488 88.192 191.9488 196.9152S886.770944 896 780.812544 896c-106.0608 0-191.9488-88.192-191.9488-196.9152 0-19.84 3.6864-38.5792 8.96-56.6016L383.910144 517.12c-35.0976 39.0144-84.9152 63.7952-140.7232 63.7952C137.151744 580.9152 51.186944 492.8 51.186944 384s85.9648-196.9152 191.9744-196.9152c43.776 0 83.6608 15.6672 115.9424 40.8832l-0.768-1.3568 232.576-136.3712c-0.8704-7.0144-2.048-13.952-2.048-21.4528 0-108.544 85.888-196.7872 191.9488-196.7872C886.770944-128 972.786944-39.7568 972.786944 68.7872c0.0512 108.8512-85.9648 196.992-191.8976 196.992z m0 551.5264c63.5648 0 115.2512-52.9408 115.2512-118.1696 0-65.28-51.6864-118.144-115.2512-118.144-63.6928 0-115.2512 52.8896-115.2512 118.144 0 65.2288 51.5584 118.1696 115.2512 118.1696zM243.186944 265.7792c-63.6416 0-115.1232 52.8896-115.1232 118.2208 0 65.28 51.5584 118.1696 115.1232 118.1696 63.6416 0 115.2-52.8896 115.2-118.1696 0-65.3312-51.5584-118.2208-115.2-118.2208z m537.6768-315.136c-63.6928 0-115.2512 52.992-115.2512 118.0928 0 65.4592 51.5584 118.3488 115.2512 118.3488 63.5648 0 115.2512-52.8896 115.2512-118.3488 0-65.1008-51.6864-118.1184-115.2512-118.1184z"  horiz-adv-x="1024" />

    
    <glyph glyph-name="zhifubao" unicode="&#58917;" d="M1023.65184 194.71872V698.50624c0 108.5952-88.13056 196.72576-196.79744 196.72576H197.07904C88.48384 895.232 0.35328 807.10144 0.35328 698.50624v-629.77536C0.35328-39.86944 88.4224-128 197.07904-128h629.77536c96.76288 0 177.28512 69.96992 193.72544 162.00192-52.18816 22.5792-278.33856 120.23808-396.14464 176.45568-89.66656-108.5952-183.55712-173.76256-325.08928-173.76256s-235.99616 87.168-224.67584 193.84832c7.48544 70.03136 55.51616 184.50944 264.1408 164.87424 109.94176-10.29632 160.27136-30.82752 249.94304-60.43648 23.20896 42.53184 42.46528 89.344 57.10848 139.16672h-397.6192v39.3984h196.73088V584.27904H205.00992v43.36128h239.96416V729.71264s2.17088 15.98976 19.82464 15.98976h98.36544v-118.06208h255.82592v-43.36128h-255.82592v-70.7328h208.68608c-19.17952-78.09024-48.2816-149.84704-84.74112-212.52096 60.63104-21.94432 336.54272-106.30656 336.54272-106.30656zM283.67872 104.22272c-149.5296 0-173.19424 94.39744-165.26336 133.8624 7.86432 39.26528 51.16416 90.496 134.30784 90.496 95.54944 0 181.12-24.42752 283.83744-74.43968-72.1408-93.95712-160.78848-149.91872-252.88192-149.91872z"  horiz-adv-x="1024" />

    
    <glyph glyph-name="kuandai" unicode="&#58985;" d="M874.664149-127.996587H149.335168A148.410843 148.410843 0 0 0 0.002731 21.335851V746.664832A148.444976 148.444976 0 0 0 149.335168 895.997269h725.328981A148.410843 148.410843 0 0 0 1023.996587 746.664832v-725.328981A148.37671 148.37671 0 0 0 874.664149-127.996587zM149.335168 853.330859A105.642033 105.642033 0 0 1 42.669141 746.664832v-725.328981a105.642033 105.642033 0 0 1 106.666027-106.666027h725.328981a105.642033 105.642033 0 0 1 106.666027 106.666027V746.664832a105.642033 105.642033 0 0 1-106.666027 106.666027H149.335168zM733.864994 125.85149h-443.730671a71.918502 71.918502 0 0 0-72.532898 72.532898v215.482441C217.601425 454.382852 249.6183 486.399727 290.134323 486.399727h40.550157V569.582161c0 40.550157 32.016875 72.532898 72.532898 72.532898h213.332053c40.550157 0 72.532898-32.016875 72.532899-72.532898V486.399727h40.550156c40.550157 0 72.532898-32.016875 72.532898-72.532898v-215.482441c4.232508-40.516024-27.750233-72.532898-68.30039-72.532898z m-443.730671 317.881826c-17.066564 0-29.866487-12.799923-29.866487-29.866487v-215.482441c0-17.066564 12.799923-29.866487 29.866487-29.866487h441.614417c17.066564 0 29.866487 12.799923 29.866488 29.866487v215.482441c0 17.066564-12.799923 29.866487-29.866488 29.866487h-61.883362c-12.799923 0-21.333205 8.533282-21.333205 21.333206V569.582161c0 17.066564-12.799923 29.866487-29.866488 29.866488h-213.332053c-17.066564 0-29.866487-12.799923-29.866487-29.866488v-104.549773c0-12.799923-8.533282-21.333205-21.333206-21.333205H290.134323z"  horiz-adv-x="1024" />

    
    <glyph glyph-name="v" unicode="&#58909;" d="M362.358387-122.48387c-7.136324 4.265567-14.431061 19.934311-21.908682 47.030705-7.504667 27.096393-11.085064 70.754055-10.718009 131.003895 0.368343 60.24984-6.950864 139.931705-21.907393 239.01855-9.269107 58.458354-18.56526 104.618429-27.807321 138.482804-9.269107 33.863086-22.645367 67.200704-40.104311 100.011566-17.483414 32.785103-38.496996 57.747426-63.092263 74.862496-24.593979 17.089312-45.975904 27.070635-64.171534 29.941393-18.169871 2.843711-40.104311 4.791035-65.751803 5.872881-25.674538 1.077983-40.842285 4.63391-45.450436 10.689675-4.660956 6.055765 1.948612 24.780727 19.775898 56.140111 35.628815 59.905967 61.117893 99.089421 76.469812 117.654681 15.299114 18.511168 37.945769 34.917887 67.884585 49.187958C195.544081 891.658447 225.482898 897.7155 255.423002 895.584004c29.230465-2.843711 56.668155-13.563008 82.342693-32.074175 25.67325-18.56526 49.003787-46.002951 70.044416-82.342693 21.013582-36.364213 37.07514-71.834614 48.135733-106.407341 11.033547-34.602348 20.117195-81.658811 27.253519-141.169389 7.137612-59.537624 13.193377-119.784888 18.19563-180.719898 4.977782-60.956904 6.030007-113.729123 3.186295-158.283172-2.842423-44.552761-3.922982-75.232127-3.186295-91.978855 0.68517-16.74544 3.898511-27.991493 9.611692-33.680203 5.714468-5.71318 23.541755 14.61652 53.481859 60.95948l63.092263 97.32498c16.378385 26.35842 39.920139 66.120146 70.569884 119.23495 30.651032 53.11094 54.903715 99.613601 72.731001 139.559499 17.80024 39.921427 21.380637 68.440964 10.690962 85.556035-10.690963 15.666169-28.886592 22.803781-54.535371 21.380637l-59.905968-4.291325c-3.555927 5.002253 2.843711 20.328413 19.247854 46.002951 11.403178 18.538214 25.675826 37.419013 42.792185 56.666867 17.116359 19.249142 37.97024 36.892257 62.565507 52.955103 24.593979 16.0358 56.141399 26.885176 94.638394 32.598356 37.786068 4.976494 73.072298-0.368343 105.881872-16.037088 32.785103-15.694503 52.929345-45.292023 60.406965-88.766801 7.477621-43.500536 2.686586-84.842531-14.429773-124.051743-12.850792-27.807321-40.104311-66.832361-81.815936-117.100879-41.70905-50.269805-92.875242-108.725583-153.466379-175.373772-60.591137-66.675236-108.015943-117.997266-142.222902-153.993135a9675.842759 9675.842759 0 0 0-104.802601-108.541412c-35.653285-36.365501-65.96302-65.069209-90.898297-86.108549-24.96361-21.040628-47.056463-32.415473-66.305605-34.205671-19.249142-1.763152-31.387718-0.184172-36.364212 4.819369"  horiz-adv-x="1056" />

    
    <glyph glyph-name="icon" unicode="&#58881;" d="M512.981 828.3c-244.98 0-443.578-198.598-443.578-443.578 0-244.984 198.597-443.58 443.578-443.58 244.983 0 443.579 198.595 443.579 443.58-0.001 244.978-198.596 443.578-443.579 443.578zM454.462 190.657h-52.367l-166.343 181.745 36.966 36.965 157.1-107.815 378.889 304.96 30.804-30.803-385.050-385.053z"  horiz-adv-x="1024" />

    
    <glyph glyph-name="dianhua" unicode="&#58902;" d="M371.51 62.672v-1.21c-6.551 0-11.355-0.503-14.178-0.503h-3.326c-69.813 0-126.054 55.837-128.002 125.55-1.075 34.235 11.288 67.361 34.738 92.256 23.45 24.895 55.166 39.476 89.4 40.45 0.337 0 3.764 0.202 4.066 0.202 26.81 0 52.511-8.4 74.618-24.492 31.01-10.953 62.355 4.367 92.961 45.422 30.472 40.753 36.89 73.073 19.05 96.02-6.35 4.568-12.465 10.011-18.512 16.461-1.075 1.042-2.05 2.15-2.99 3.327-20.024 22.61-31.514 51.234-32.42 80.732-1.95 70.754 53.82 129.884 124.273 131.866 0.336 0 3.628 0.067 3.93 0.067 59.265 0 111.675-41.995 124.576-99.916 10.415-32.151 37.024-159.516-90.945-330.59C530.354 79.774 415.454 62.673 371.51 62.673z m-4.132 64.606c19.116-0.436 119.57 2.251 229.531 149.673 112.313 150.176 86.746 255.501 80.464 275.122-7.156 31.412-33.06 52.209-62.389 52.209-37.023-1.042-64.64-30.405-63.699-65.547 0.571-18.646 9.407-32.253 16.698-40.316 0.235-0.269 0.47-0.538 0.671-0.806 4.066-4.402 7.862-7.694 11.658-10.147 2.386-1.579 4.603-3.46 6.485-5.61 19.788-22.308 58.088-84.529-13.405-180.111-46.162-61.784-93.5-74.719-125.047-74.752-16.227 0-32.353 3.326-47.908 9.81a31.455 31.455 0 0 0-7.526 4.435c-8.03 6.316-21.266 13.875-38.737 13.875-19.15-0.537-34.84-7.593-46.43-19.89-11.624-12.363-17.739-28.523-17.235-45.489 0.974-34.671 28.893-61.75 63.497-61.75 0.168 0 0.202-0.034 0.068-0.067a48.03 48.03 0 0 0 3.292 0.436c3.393-0.033 6.787-0.302 10.012-1.075z m148.328-198.757c-60.709 0-119.603 11.86-175.071 35.176-16.429 6.954-24.122 25.836-17.201 42.264 6.92 16.463 25.835 24.09 42.264 17.235 47.472-19.956 97.934-30.136 150.008-30.136 213.54 0 387.234 173.694 387.234 387.234 0 213.505-173.694 387.233-387.234 387.233S128.473 593.799 128.473 380.26c0-73.005 20.427-144.095 59.063-205.61 9.44-15.119 4.905-35.008-10.18-44.482-15.085-9.475-35.008-4.939-44.482 10.18C87.72 212.21 63.901 295.16 63.901 380.26c0 249.085 202.654 451.772 451.772 451.772S967.445 629.378 967.445 380.26c0-249.084-202.654-451.739-451.739-451.739z"  horiz-adv-x="1024" />

    
    <glyph glyph-name="gongju" unicode="&#59020;" d="M891.597107 739.573117H701.211501v64.84671c0 35.765038-28.359146 64.84671-63.401658 64.84671H384.20321c-35.042512 0-63.401658-29.081672-63.401658-64.84671v-64.84671h-190.204974c-70.085024 0-126.803316-57.982713-126.803316-129.512789v-161.665197h1014.607161v161.665197c0 71.530076-56.898924 129.512789-126.803316 129.512789z m-253.787264 0H384.20321v32.333039c0 17.882519 14.269889 32.333039 31.791145 32.33304h190.204975c17.521256 0 31.791145-14.45052 31.791145-32.33304l-0.180632-32.333039zM511.006527 286.18804c35.042512 0 63.401658 29.081672 63.401658 64.84671 0 11.921679-3.251367 22.75957-8.850944 32.33304H456.455812c-5.418945-9.57347-8.850944-20.591992-8.850943-32.33304 0-35.945669 28.359146-64.84671 63.401658-64.84671zM633.294055 383.36779c2.709473-10.476627 4.515788-21.133886 4.515788-32.33304 0-71.530076-56.718292-129.512789-126.803316-129.512788-70.085024 0-126.803316 57.982713-126.803317 129.512788 0 11.199153 1.806315 22.037044 4.515788 32.33304h-384.925736v-356.205327c0-71.530076 56.718292-129.512789 126.803316-129.512789h761.000529c70.085024 0 126.803316 57.982713 126.803316 129.512789V383.36779H633.294055z"  horiz-adv-x="1024" />

    
    <glyph glyph-name="paihangbang" unicode="&#58900;" d="M909.8 360.9H689.6v-318.2h221.2c26.7 0 48.5 21.9 48.5 48.9V311.2c0 27.4-22.2 49.7-49.5 49.7zM689.6 676.2c0 27.1-21.8 49.1-48.5 49.1H403.3c-26.7 0-48.5-22-48.5-49.1v-633.5h334.8V676.2zM64.7 436.2v-344.6c0-27 21.8-48.9 48.5-48.9h241.7V485.6H114.2c-27.3 0-49.5-22.2-49.5-49.4zM576.6 324.9c-2.8-2.6-4-6.4-3.4-10.2l6.5-40.5c1.5-9.5-8.5-16.6-16.9-12l-35.9 19.5c-3.3 1.8-7.4 1.9-10.8 0.1l-36.6-18.7c-8.5-4.4-18.3 2.9-16.6 12.4l7.4 40.2c0.7 3.8-0.5 7.6-3.2 10.3l-29.3 29c-6.8 6.7-2.9 18.3 6.5 19.6l41.1 5.7c3.8 0.5 7 2.9 8.7 6.2l18.4 36.5c4.3 8.6 16.6 8.4 20.7-0.2l17.9-37.2c1.7-3.4 4.9-5.8 8.7-6.4l40.5-6.2c9.5-1.5 13.2-13.2 6.2-19.8l-29.9-28.3z"  horiz-adv-x="1024" />

    
    <glyph glyph-name="zhengjianzhaopian_weishangchuan" unicode="&#59001;" d="M1408.460739 895.982936H127.249167A119.911478 119.911478 0 0 1 8.617518 775.525397v-782.965472a119.911478 119.911478 0 0 1 118.631649-120.457539h1281.211572a119.911478 119.911478 0 0 1 118.631649 120.457539V775.525397a119.911478 119.911478 0 0 1-118.631649 120.457539zM701.721904 98.410345a60.049593 60.049593 0 0 0-7.132916-21.842421 36.739635 36.739635 0 0 0-18.685508-9.624316 330.332489 330.332489 0 0 0-38.548461-8.890548c-15.357952-2.713238-32.337022-5.255833-50.86895-7.678977s-37.217438-4.504999-56.056526-6.02373-36.910279-3.003333-54.606053-4.061325-32.917211-1.706439-46.073857-1.706439-28.480469 0.597254-45.817891 1.706439-35.152646 2.406079-53.684575 4.061325-36.927343 3.310492-54.862018 5.272897-34.555393 4.061325-49.674444 6.484469-27.883216 4.812158-38.27543 7.218238a52.899613 52.899613 0 0 0-19.419277 6.928142 65.271297 65.271297 0 0 0-10.37515 33.872817 264.327423 264.327423 0 0 0 2.37195 72.728437 58.769764 58.769764 0 0 0 20.306626 38.855619 134.057859 134.057859 0 0 0 38.565525 20.920944 494.867351 494.867351 0 0 0 45.817891 14.163445 137.009999 137.009999 0 0 1 41.824823 18.207705 133.682442 133.682442 0 0 1 21.944807 17.781096 60.629783 60.629783 0 0 1 11.125984 16.108786 41.602986 41.602986 0 0 1 3.549393 17.064391c0 5.870151-0.290095 12.644714-0.733769 20.170111a39.2481 39.2481 0 0 1-11.125983 25.443007 285.316624 285.316624 0 0 1-20.767364 18.22477 43.804293 43.804293 0 0 0-9.931476 13.651513 149.415811 149.415811 0 0 0-7.559526 17.764032c-2.081856 6.484469-4.300227 13.651513-6.382082 21.842421a39.794161 39.794161 0 0 0-9.487802 4.812158 42.882816 42.882816 0 0 0-8.310358 9.641381 79.588322 79.588322 0 0 0-8.293294 17.764032 50.169311 50.169311 0 0 0-3.122784 21.381682 48.241035 48.241035 0 0 0 4.010132 16.569524 49.879216 49.879216 0 0 0 8.754033 14.590055 348.608452 348.608452 0 0 0 2.37195 52.558326 378.317558 378.317558 0 0 0 9.931476 47.285428 151.019864 151.019864 0 0 0 21.057459 45.613118 123.972804 123.972804 0 0 0 28.616984 31.466738 142.248767 142.248767 0 0 0 32.627117 18.975604 145.132649 145.132649 0 0 0 33.360885 9.334222 216.888415 216.888415 0 0 0 31.876283 2.423143 151.70244 151.70244 0 0 0 72.370084-17.064391 147.009732 147.009732 0 0 0 47.012398-36.278896 144.82549 144.82549 0 0 0 25.80136-48.940675 394.050927 394.050927 0 0 0 12.303426-50.442341 310.981469 310.981469 0 0 0 3.122784-54.964405 29.145981 29.145981 0 0 0 7.115851-8.873483 62.438608 62.438608 0 0 0 4.453806-12.491135 49.486735 49.486735 0 0 0 0.443675-18.975603 64.042661 64.042661 0 0 0-6.382083-23.497667 60.561525 60.561525 0 0 0-9.487801-13.651513 25.596587 25.596587 0 0 0-12.764165-7.218238c-2.064791-8.139715-4.300227-15.357952-6.365018-21.842421a116.481536 116.481536 0 0 0-8.020264-17.764031 37.746434 37.746434 0 0 0-10.37515-12.951873c-4.300227-3.754166-8.156779-6.928143-11.569658-9.624317a85.321957 85.321957 0 0 1-9.197707-8.532196 47.780296 47.780296 0 0 1-6.825756-10.085055 56.158912 56.158912 0 0 1-4.453806-13.651513 114.467938 114.467938 0 0 1-1.194508-21.381683 55.476336 55.476336 0 0 1 5.119318-21.381682 61.431809 61.431809 0 0 1 15.579789-20.170111 95.355819 95.355819 0 0 1 29.811492-17.064391 246.785229 246.785229 0 0 1 36.927343-12.508199 346.833755 346.833755 0 0 0 38.992134-12.491135 132.760965 132.760965 0 0 0 33.360886-18.514864 61.431809 61.431809 0 0 0 21.057459-29.009466 194.738835 194.738835 0 0 0 5.119317-27.405412 263.900813 263.900813 0 0 0 1.928276-32.67831 190.933476 190.933476 0 0 0-2.37195-31.620317z m668.190374 8.532196H847.929609a36.142381 36.142381 0 0 0 0 72.267698h521.982669a36.142381 36.142381 0 0 0 0-72.216505z m0 240.915078H847.929609a36.142381 36.142381 0 0 0 0 72.267698h521.982669a36.142381 36.142381 0 0 0 0-72.216505z m0 240.898014H847.929609a36.142381 36.142381 0 0 0 0 72.284762h521.982669a36.142381 36.142381 0 0 0 0-72.233569z"  horiz-adv-x="1535" />

    
    <glyph glyph-name="gengduo" unicode="&#58910;" d="M507.014425 634.077405c68.738471 0 124.45949 56.634317 124.45949 126.50156 0 69.873174-55.722996 126.525282-124.45949 126.525282-68.756263 0-124.49705-56.652108-124.49705-126.525282 0-69.867243 55.740788-126.50156 124.49705-126.50156z m0-126.515397c-68.756263 0-124.49705-56.650131-124.49705-126.533189 0-69.887012 55.740788-126.513421 124.49705-126.513421 68.738471 0 124.45949 56.624432 124.45949 126.513421 0.001977 69.879104-55.721019 126.533189-124.45949 126.533189z m0-379.571892c-68.756263 0-124.49705-56.640247-124.49705-126.515398 0-69.867243 55.740788-126.523305 124.49705-126.523305 68.738471 0 124.45949 56.658039 124.45949 126.523305 0.001977 69.875151-55.721019 126.515398-124.45949 126.515398z"  horiz-adv-x="1024" />

    
    <glyph glyph-name="erweima" unicode="&#59000;" d="M995.37531 361.237041H28.421017a28.391919 28.391919 0 0 0 0 56.842018h966.954293a28.391919 28.391919 0 0 0 0-56.842018zM514.34173-26.068298a28.391919 28.391919 0 0 0-28.391919 28.391919v243.134897a28.391919 28.391919 0 0 0 56.842018 0v-243.134897a28.391919 28.391919 0 0 0-28.450099-28.391919zM683.995082-127.999942a28.391919 28.391919 0 0 0-28.391919 28.391919v260.239865a28.391919 28.391919 0 0 0 56.842019 0v-260.007144a28.391919 28.391919 0 0 0-28.4501-28.62464zM825.372876-127.999942a28.391919 28.391919 0 0 0-28.391919 28.391919v260.239865a28.391919 28.391919 0 0 0 56.842018 0v-260.007144a28.391919 28.391919 0 0 0-28.450099-28.62464zM966.75067-127.999942a28.391919 28.391919 0 0 0-28.391919 28.391919v345.066541a28.391919 28.391919 0 0 0 56.842018 0v-344.892a28.391919 28.391919 0 0 0-28.450099-28.56646zM514.34173 494.527792a28.391919 28.391919 0 0 0-28.391919 28.391919V867.578991a28.391919 28.391919 0 0 0 56.842018 0v-344.892001A28.391919 28.391919 0 0 0 514.34173 494.527792zM936.031544 836.510784a28.275559 28.275559 0 0 0 28.275559-28.275558V581.798035a28.275559 28.275559 0 0 0-28.275559-28.275559H709.827074a28.275559 28.275559 0 0 0-28.275558 28.275559V808.235226a28.275559 28.275559 0 0 0 28.275558 28.275558h226.20447M314.201972 836.510784a28.275559 28.275559 0 0 0 28.275559-28.275558V581.798035A28.275559 28.275559 0 0 0 314.201972 553.755197H87.764782A28.275559 28.275559 0 0 0 59.489223 581.798035V808.235226a28.275559 28.275559 0 0 0 28.275559 28.275558H314.201972m0-622.062292a28.275559 28.275559 0 0 0 28.042839-28.275559v-226.20447a28.275559 28.275559 0 0 0-28.042839-28.275559H87.764782a28.275559 28.275559 0 0 0-28.275559 28.275559V186.172933a28.275559 28.275559 0 0 0 28.275559 28.275559H314.201972M936.031544 893.352803H709.827074a85.175757 85.175757 0 0 1-85.117577-85.117577V581.798035A85.175757 85.175757 0 0 1 709.827074 496.913179h226.20447A85.175757 85.175757 0 0 1 1021.149121 581.798035V808.235226A85.175757 85.175757 0 0 1 936.031544 893.352803zM314.201972 893.352803H87.764782A85.175757 85.175757 0 0 1 2.647205 808.235226V581.798035a85.175757 85.175757 0 0 1 85.117577-84.884856H314.201972A85.175757 85.175757 0 0 1 399.086829 581.798035V808.235226A85.175757 85.175757 0 0 1 314.201972 893.352803z m0-622.062293H87.764782A85.175757 85.175757 0 0 1 2.647205 186.172933v-226.20447a85.175757 85.175757 0 0 1 85.117577-85.117577H314.201972a85.175757 85.175757 0 0 1 85.117578 85.117577V186.172933A85.175757 85.175757 0 0 1 314.201972 271.23233z"  horiz-adv-x="1024" />

    
    <glyph glyph-name="xunzhaozhuanjia" unicode="&#58930;" d="M485.954783 337.029565v-15.36h62.107826v15.36a136.013913 136.013913 0 0 0-62.107826 0zM470.149565 391.123478h93.050435a111.304348 111.304348 0 0 1 11.798261 10.462609 78.135652 78.135652 0 0 1 22.260869 41.850435 66.782609 66.782609 0 0 1 1.78087 15.137391 22.26087 22.26087 0 0 0 20.48 22.26087v10.017391a22.26087 22.26087 0 0 0-20.48 22.260869v53.426087a81.92 81.92 0 0 1-24.709565 60.104348 78.58087 78.58087 0 0 1-58.10087 24.486957 80.361739 80.361739 0 0 1-59.213913-24.486957 82.587826 82.587826 0 0 1-24.041739-60.104348v-53.426087a22.26087 22.26087 0 0 0-22.26087-22.260869v-8.904348a22.26087 22.26087 0 0 0 22.26087-22.260869 81.252174 81.252174 0 0 1 24.264348-57.655653 96.834783 96.834783 0 0 1 12.911304-10.907826zM447.443478 207.248696l37.843479 38.288695-31.165218 31.610435h-87.04L274.69913 183.652174c1.78087-15.805217 9.349565-22.26087 27.826087-22.26087h159.165218l-14.246957 14.469566a22.26087 22.26087 0 0 0 0 31.387826zM578.782609 277.147826l-30.72-31.165217 36.285217-36.730435a22.26087 22.26087 0 0 0 0-31.387826l-16.027826-16.473044h162.726957c17.363478 0 24.709565 6.455652 26.490434 22.26087l-92.16 93.495652z m118.205217-84.591304a22.26087 22.26087 0 0 0-22.260869-22.26087h-52.758261a22.26087 22.26087 0 0 0 0 44.521739h52.758261a22.26087 22.26087 0 0 0 22.260869-22.260869zM512 896a512 512 0 1 1 512-512A512 512 0 0 1 512 896z m291.394783-707.227826A66.782609 66.782609 0 0 0 731.937391 116.869565H301.857391a66.782609 66.782609 0 0 0-71.902608 71.234783v4.452174a22.26087 22.26087 0 0 0 6.455652 15.582608l105.516522 106.852174a22.26087 22.26087 0 0 0 15.805217 6.678261h83.255652v35.84a142.024348 142.024348 0 0 0-15.805217 13.801739 124.215652 124.215652 0 0 0-34.726957 66.782609 22.26087 22.26087 0 0 0-22.260869 22.26087V513.113043a22.26087 22.26087 0 0 0 22.260869 22.26087v31.165217a126.886957 126.886957 0 0 0 36.953044 91.269566 124.66087 124.66087 0 0 0 89.043478 37.843478 122.657391 122.657391 0 0 0 90.37913-37.62087 125.996522 125.996522 0 0 0 37.62087-91.492174v-31.165217a22.26087 22.26087 0 0 0 20.48-22.26087v-53.426086a22.26087 22.26087 0 0 0-22.26087-22.26087v-2.003478a121.989565 121.989565 0 0 0-35.172174-64.333913 158.497391 158.497391 0 0 0-14.024347-12.688696v-36.730435h82.365217a22.26087 22.26087 0 0 0 15.805217-6.678261l105.516522-106.852174a22.26087 22.26087 0 0 0 6.455652-15.582608z"  horiz-adv-x="1024" />

    
    <glyph glyph-name="jiantou" unicode="&#58988;" d="M708.608 352.768c-17.92-17.92-47.104-17.92-65.024 0L315.392 680.96c-17.92 17.92-17.92 47.104 0 65.024s47.104 17.92 65.024 0l328.192-328.192c17.92-17.92 17.92-47.104 0-65.024zM708.608 415.232c17.92-17.92 17.92-47.104 0-65.024l-328.192-328.192c-17.92-17.92-47.104-17.92-65.024 0s-17.92 47.104 0 65.024l328.192 328.192c17.92 17.92 47.104 17.92 65.024 0z"  horiz-adv-x="1024" />

    
    <glyph glyph-name="fahuo" unicode="&#58952;" d="M953.6 584.6l-83.7 182c-8.7 19.5-27.8 32.2-49.2 32.6H201.1c-21.6-0.3-41-13.3-49.4-33.2L70.3 584.6c-3.5-7.8-5.3-16.3-5.3-24.9V27c-0.8-31.1 23.6-57.1 54.7-58.1h784.6c31.1 1 55.6 27 54.7 58.1V559c0.1 8.8-1.7 17.6-5.4 25.6zM524.4 483.8l153.9-183.5c3.7-4.8 4.2-11.4 1.3-16.8-2.9-5.4-8.7-8.5-14.7-8.1H578c-8.8 0.3-16.2-6.6-16.6-15.5v-157.1c-0.1-4.2-1.8-8.2-4.8-11.1-3-2.9-7-4.5-11.2-4.4h-67.1c-8.8-0.3-16.2 6.6-16.6 15.5V260c0 4.2-1.8 8.2-4.8 11.1s-7 4.5-11.2 4.4h-87.5c-6-0.3-11.6 3-14.4 8.4-2.7 5.4-2.1 11.8 1.6 16.6L498.7 484c3.2 3.7 7.9 5.9 12.8 5.9 5.1-0.2 9.7-2.3 12.9-6.1z m331.2 102H164c-4.2 0.2-8 2.4-10.2 6.1-2.1 3.6-2.3 8.1-0.4 11.8l60.6 129c1.8 4.2 5.9 7 10.5 7H795c4.6 0 8.7-2.8 10.5-7l60.6-129c1.7-3.8 1.4-8.1-0.7-11.6-2-3.6-5.7-5.9-9.8-6.3z m0 0"  horiz-adv-x="1024" />

    
    <glyph glyph-name="chakan-yongjinzhengce" unicode="&#58915;" d="M947.2 742.4h-162.816C762.88 801.792 706.56 844.8 640 844.8h-102.4V896H486.4v-51.2H384c-66.56 0-122.88-43.008-144.384-102.4H76.8C48.64 742.4 25.6 719.36 25.6 691.2v-768c0-28.16 23.04-51.2 51.2-51.2h870.4c28.16 0 51.2 23.04 51.2 51.2V691.2c0 28.16-23.04 51.2-51.2 51.2z m-156.16-24.064c1.536-8.704 2.56-17.92 2.56-27.136s-1.024-18.432-2.56-27.136c1.536 8.704 2.56 17.92 2.56 27.136s-1.024 17.92-2.56 27.136zM435.2 793.6h153.6c56.32 0 102.4-46.08 102.4-102.4s-46.08-102.4-102.4-102.4H435.2c-56.32 0-102.4 46.08-102.4 102.4s46.08 102.4 102.4 102.4zM232.96 718.336c-1.536-9.216-2.56-17.92-2.56-27.136s1.024-17.92 2.56-27.136c-1.536 8.704-2.56 17.92-2.56 27.136s1.024 18.432 2.56 27.136zM896 25.6c0-28.16-23.04-51.2-51.2-51.2H179.2c-28.16 0-51.2 23.04-51.2 51.2V588.8c0 28.16 23.04 51.2 51.2 51.2h60.416C261.12 580.608 317.44 537.6 384 537.6h256c66.56 0 122.88 43.008 144.384 102.4H844.8c28.16 0 51.2-23.04 51.2-51.2v-563.2z m-314.88 256l-43.52 16.384c-18.944 6.144-33.792 11.264-44.032 15.872-10.24 4.096-15.36 10.24-15.36 18.432 0 15.36 14.336 23.04 43.008 23.04 15.36 0 28.672-2.048 40.96-6.144 12.288-4.096 25.088-10.24 38.4-18.432l50.176 56.32c-18.432 15.872-39.424 27.136-61.952 34.304-11.264 3.584-23.04 6.656-34.304 8.192V465.92H470.016v-40.448c-2.56-0.512-4.608-1.536-7.168-2.048-17.92-5.632-32.768-13.312-45.568-22.528-12.8-9.728-22.528-20.48-29.696-33.28-7.168-12.8-10.752-26.112-10.752-40.96 0-12.288 2.048-23.552 6.656-33.28 4.096-10.24 10.24-18.944 17.408-26.624s15.872-14.848 25.6-20.48 19.968-10.24 30.72-13.824l47.104-17.92c7.68-2.56 15.872-5.12 23.552-7.68 6.656-2.048 12.288-4.608 17.408-7.168 4.608-2.56 8.192-5.12 10.752-7.68s3.584-6.144 3.584-10.24c0-7.68-3.584-13.824-10.24-17.92s-18.944-6.144-36.352-6.144c-15.36-0.512-30.72 2.56-47.104 8.704s-31.744 13.824-45.568 23.552l-57.344-61.44c21.504-16.896 45.056-29.184 70.656-36.864 12.288-3.584 24.064-6.656 35.84-8.192v-37.376h85.504v37.888c7.168 1.536 13.824 3.072 19.968 5.12 18.944 6.144 34.816 13.824 47.616 23.552s22.528 21.504 29.184 34.816c6.656 13.312 9.728 27.136 9.728 41.472 0 23.552-6.656 43.008-20.48 57.856-13.824 14.848-34.304 26.624-59.904 34.816z"  horiz-adv-x="1024" />

    
    <glyph glyph-name="yunzhuomian" unicode="&#59358;" d="M64 736v-528c0-17.6 14.4-32 32-32h832c17.6 0 32 14.4 32 32V736c0 17.6-14.4 32-32 32H96c-17.6 0-32-14.4-32-32z m832-496H128V704h768v-464zM864 0H160c-17.6 0-32 14.4-32 32s14.4 32 32 32h704c17.6 0 32-14.4 32-32s-14.4-32-32-32zM656 496c-8 72-70.4 128-144 128-64 0-116.8-41.6-136-99.2-8 3.2-16 3.2-24 3.2-62.4 0-112-49.6-112-112s49.6-112 112-112h304c52.8 0 96 43.2 96 96s-43.2 96-96 96z m0-128H352c-27.2 0-48 20.8-48 48s20.8 48 48 48c6.4 0 12.8-1.6 17.6-3.2 0 0 22.4-1.6 54.4-25.6 0 0-1.6 28.8 8 59.2 6.4 38.4 40 67.2 78.4 67.2 44.8 0 80-35.2 80-80v-9.6s-3.2-28.8-9.6-52.8c0 0 17.6 8 65.6 12.8 3.2 0 6.4 1.6 8 1.6 17.6 0 32-14.4 32-32S673.6 368 656 368z"  horiz-adv-x="1024" />

    
    <glyph glyph-name="DDCX" unicode="&#58889;" d="M883.2 83.20000000000005h-83.2l32-32c-12.8-6.4-19.2-6.4-32-6.4H640L428.8 256c-44.8 44.8-115.2 44.8-160 0l-192-185.6c-6.4 19.2-12.8 38.4-12.8 57.6V281.6l473.6 441.6h211.2L544 518.4c-44.8-44.8-44.8-121.6 0-166.4l76.8-76.8v19.2c0 19.2 0 38.4 6.4 57.6l-44.8 38.4c-25.6 25.6-25.6 64 0 89.6l83.2 83.2 57.6-57.6c6.4-6.4 12.8-12.8 12.8-25.6 19.2 6.4 32 12.8 51.2 19.2-6.4 19.2-12.8 32-32 44.8l-51.2 57.6 121.6 121.6c44.8-6.4 76.8-44.8 76.8-89.6v-147.2c19.2-6.4 38.4-19.2 57.6-32V633.6c0 83.2-64 147.2-147.2 147.2H153.6C70.4 780.8 6.4 716.8 6.4 633.6V128c0-83.2 64-147.2 147.2-147.2h659.2c76.8 0 140.8 64 147.2 140.8-19.2-12.8-38.4-25.6-64-32-6.4 0-6.4-6.4-12.8-6.4zM64 633.6c0 51.2 38.4 89.6 89.6 89.6h300.8L64 358.4V633.6z m89.6-595.2c-6.4 0-19.2 0-25.6 6.4l185.6 172.8c25.6 19.2 57.6 19.2 83.2 0L576 38.39999999999998H153.6zM1017.6 134.39999999999998l-64 64c19.2 25.6 32 57.6 32 89.6 0 83.2-70.4 153.6-153.6 153.6-83.2 0-153.6-70.4-153.6-153.6s70.4-153.6 153.6-153.6c32 0 64 12.8 89.6 32l64-64c6.4-6.4 25.6-6.4 32 0 6.4 6.4 6.4 19.2 0 32z m-192 44.8c-57.6 0-108.8 51.2-108.8 108.8 0 57.6 51.2 108.8 108.8 108.8 57.6 0 108.8-51.2 108.8-108.8 6.4-57.6-44.8-108.8-108.8-108.8z"  horiz-adv-x="1024" />

    
    <glyph glyph-name="haoqia" unicode="&#58960;" d="M870.968889 696.32H276.195556L71.111111 497.493333v-345.315555c0-44.373333 36.693333-80.213333 81.92-80.213334h718.222222c45.226667 0 81.92 36.124444 81.92 80.213334v463.644444c-0.284444 44.373333-36.977778 80.497778-82.204444 80.497778z m13.937778-544.142222c0-6.826667-6.257778-12.515556-13.937778-12.515556H153.031111c-7.68 0-13.937778 5.688889-13.937778 12.515556V468.764444l164.693334 159.573334h567.182222c7.68 0 13.937778-5.688889 13.937778-12.515556v-463.644444zM761.742222 601.315556h-186.026666c-34.702222 0-62.862222-27.875556-62.862223-62.008889v-309.191111c0-34.417778 28.16-62.008889 62.862223-62.008889h186.026666c34.702222 0 62.862222 27.875556 62.862222 62.008889V539.306667c0 34.417778-28.16 62.008889-62.862222 62.008889z m0-371.2h-186.311111c0 205.937778 0.284444 309.191111 0.284445 309.191111h186.311111c-0.284444-205.937778-0.284444-309.191111-0.284445-309.191111zM669.582222 476.444444v-104.106666c0-17.066667 13.937778-31.004444 31.288889-31.004445s31.288889 13.937778 31.288889 31.004445v104.106666c0 17.066667-13.937778 31.004444-31.288889 31.004445s-31.288889-13.937778-31.288889-31.004445z"  horiz-adv-x="1024" />

    
    <glyph glyph-name="liantong" unicode="&#58974;" d="M972.22997-76.311885a176.373473 176.373473 0 0 0-249.489109 0c-27.070384 27.006388-43.005433 43.037431-43.005433 43.037431L636.761993-76.311885a176.501465 176.501465 0 0 0-249.585103 249.553105C406.375744 192.312081 597.980308 383.980641 597.980308 383.980641L387.17689 594.720063a176.437469 176.437469 0 1 0 249.585103 249.585103l42.973435-43.005434 43.005433 42.973435a176.437469 176.437469 0 0 0 249.457111-249.553104L761.45855 383.980641l210.803418-210.739421a176.437469 176.437469 0 0 0 0-249.553105z m-293.390488 379.401354s-184.916963-186.708856-209.875473-211.635368a60.796371 60.796371 0 1 1 86.010866-85.978868c22.814638 22.878634 43.005433 43.037431 43.005433 43.037431l-65.084115 65.02012 81.787118 81.75512 65.052117-65.084116 65.020119 65.084116 81.755121-81.75512-64.988121-65.02012 42.973435-43.037431a60.796371 60.796371 0 0 1 85.94687 85.978868l-211.60337 211.635368zM133.432036 426.954076c-11.839293-11.839293-17.75894-27.390365-17.75894-42.973435s5.919647-31.102144 17.75894-42.973435a60.924364 60.924364 0 0 1 86.042864 0L262.448335 383.980641l-42.973435 42.973435a60.860367 60.860367 0 0 1-86.074862 0z m757.010816 249.553105a60.764373 60.764373 0 1 1-85.94687 85.978868c-22.910633-22.846636-42.973435-42.973435-42.973435-42.973435l64.988121-65.084115-81.755121-81.691124-65.020119 65.020119L614.683311 572.769373l-81.787118 81.691124 65.052117 65.084115-42.973435 42.973435a60.828369 60.828369 0 0 1-86.042864-85.978868c24.990508-24.926512 209.907471-211.635368 209.907471-211.635368l211.60337 211.635368z m247.79321-249.553105L1095.262627 383.980641l42.973435-42.973435a60.892365 60.892365 0 0 1 86.042864 0 60.668379 60.668379 0 0 1 0 85.978868 60.828369 60.828369 0 0 1-86.074863 0zM51.676916 259.220088A175.861503 175.861503 0 0 0 0 384.012639a176.437469 176.437469 0 0 0 301.262018 124.792552c19.742822-19.838816 42.973435-43.037431 42.973435-43.037432l64.988121 64.988122 81.787119-81.691125L425.926578 383.980641l65.084115-65.020119-81.787119-81.723122-64.988121 65.020119-42.973435-43.037431a176.501465 176.501465 0 0 0-249.585102 0z m1254.35713 0a176.501465 176.501465 0 0 0-249.585103 0l-42.973435 43.037431-65.052117-65.020119-81.75512 81.723122L931.784384 383.980641l-65.084115 65.052117 81.75512 81.723123 65.052117-64.988122 42.973435 42.973436a176.469467 176.469467 0 1 0 249.585103-249.521107z"  horiz-adv-x="1375" />

    
    <glyph glyph-name="xiaoshoudingdanguidang" unicode="&#58934;" d="M161.858065 441.255914H242.236559v-101.298925h-80.378494zM0 591.002151h242.236559v-71.569893H0zM0 281.6h242.236559v-71.569892H0zM339.131183 697.806452h342.434408v-68.266667H339.131183zM339.131183 516.129032h170.666666v-68.266666H339.131183zM240.034409 747.354839c0 30.830108 25.324731 56.154839 56.154838 56.154838h571.458065c30.830108 0 56.154839-25.324731 56.154839-56.154838V532.645161h88.086021V747.354839c0 74.873118-70.468817 135.432258-145.341935 135.432258H297.290323c-74.873118 0-135.432258-60.55914-135.432258-135.432258v-68.266667h79.277419v68.266667zM297.290323-21.195699c-30.830108 0-56.154839 25.324731-56.154839 56.154839v71.569892h-79.277419v-71.569892c0-74.873118 60.55914-135.432258 135.432258-135.432258h219.113978L462.451613-21.195699H297.290323zM828.008602 434.649462c-144.24086 0-262.055914-117.815054-262.055914-262.055914s117.815054-262.055914 262.055914-262.055914S1090.064516 28.352688 1090.064516 172.593548 972.249462 434.649462 828.008602 434.649462z m0-473.462365C711.294624-38.812903 616.602151 55.87957 616.602151 172.593548s94.692473 212.507527 212.507526 212.507527S1040.516129 290.408602 1040.516129 172.593548s-94.692473-211.406452-212.507527-211.406451zM954.632258 239.75914z m-5.505376 5.505376zM738.821505 165.987097c-11.010753 9.909677-26.425806 8.808602-36.335483-2.202151-9.909677-11.010753-8.808602-26.425806 2.20215-36.335484l79.277419-70.468817c4.404301-4.404301 11.010753-6.606452 17.617205-6.606451 6.606452 0 13.212903 2.202151 18.718279 7.707526l151.948387 157.453764c9.909677 9.909677 9.909677 26.425806-1.101075 36.335484-9.909677 9.909677-26.425806 9.909677-36.335484-1.101076L799.380645 112.034409l-60.55914 53.952688z"  horiz-adv-x="1090" />

    
    <glyph glyph-name="warning" unicode="&#58883;" d="M529.655172 878.344828c-271.889655 0-494.344828-222.455172-494.344828-494.344828 0-271.889655 222.455172-494.344828 494.344828-494.344828 271.889655 0 494.344828 222.455172 494.344828 494.344828C1024 655.889655 801.544828 878.344828 529.655172 878.344828L529.655172 878.344828M529.655172 30.896552000000042c-38.841379 0-70.62069 31.77931-70.62069 70.62069 0 38.841379 31.77931 70.62069 70.62069 70.62069 38.841379 0 70.62069-31.77931 70.62069-70.62069C600.275862 62.67586200000005 568.496552 30.896552000000042 529.655172 30.896552000000042L529.655172 30.896552000000042M621.462069 564.082759C621.462069 564.082759 621.462069 560.5517239999999 621.462069 564.082759L621.462069 564.082759 621.462069 564.082759 621.462069 564.082759 621.462069 564.082759 621.462069 564.082759c0-3.531034-60.027586-282.482759-60.027586-282.482759 0 0 3.531034 21.186207 0 0-3.531034-21.186207-14.124138-31.77931-31.77931-31.77931-17.655172 0-28.248276 14.124138-31.77931 35.310345-7.062069 21.186207-60.027586 271.889655-60.027586 271.889655 0 0 0 0 0 0l0 0c0 0 0 0 0 0l0 0 0 0c0 0 0 0 0 0l0 0 0 0 0 0c0 0 0 0 0 0l0 0c0 0 0 0 0 0 0 0 0 0 0 0l0 0c0 0 0 0 0 0l0 0 0 0 0 0 0 0 0 0 0 0 0 0c0 0 0 0 0 0 0 7.062069-3.531034 14.124138-3.531034 17.655172 0 52.965517 42.372414 95.337931 95.337931 95.337931 52.965517 0 95.337931-42.372414 95.337931-95.337931C624.993103 574.675862 621.462069 567.613793 621.462069 564.082759L621.462069 564.082759M621.462069 564.082759"  horiz-adv-x="1060" />

    
    <glyph glyph-name="login1" unicode="&#59102;" d="M78.071256-62.931064c-10.994481 10.904379-18.147343 34.808006-12.041915 93.086535 10.469227 97.713472 184.870686 107.48441 264.173676 151.895435 62.643352 34.98309 30.710416 114.549218 27.746269 120.391508-16.229606 11.955909-30.800518 26.087574-44.3199 41.531861-0.525253 0.259043-0.874398 0.608188-1.395556 1.132417h0.611259c-15.531316 17.970211-28.180396 38.473515-39.1759 60.286368-17.271922 5.144-42.5752 17.970211-51.298702 62.901371-6.979826 36.773865 9.421793 52.826339 19.106724 59.107876-0.086006 4.884957-1.219447 9.508823-1.219448 14.434735 0 159.309389 80.523461 288.561601 267.052842 288.561601 180.506887 0 267.051818-129.252212 267.051818-288.561601 0-4.490761-0.870303-8.592446-1.04641-12.953173 9.073672-5.193146 28.792679-20.852449 21.115587-60.458381-9.24978-46.023645-36.120626-58.278529-53.569681-63.20956-10.995505-21.636745-59.852241-87.244245-83.404674-101.98717-2.444014-5.061065-31.930888-101.552018 50.4284-130.865855 73.628618-26.262659 212.000576-55.139296 237.475867-124.32118 14.828931-39.78204 17.974307-82.711504-3.140257-110.974834H78.071256v0.002047z"  horiz-adv-x="1024" />

    
    <glyph glyph-name="huoche" unicode="&#59103;" d="M35.076944 403.21882c0-0.354264-0.177132-0.708528 0-1.062792v-309.980972c0-21.787234 17.713198-39.500432 39.500433-39.500432H155.526694c0-99.902439 80.949317-180.674624 180.674623-180.674624s180.674624 80.949317 180.674624 180.674624h80.949317c21.787234 0 39.500432 17.713198 39.500432 39.500432V735.872686c0 21.787234-17.713198 39.500432-39.500432 39.500433H297.232281c-13.107767 0-25.507006-6.553883-32.946549-17.536067l-222.477772-333.89379c-4.251168-6.022487-6.376751-13.284899-6.731016-20.724442z m421.574122 10.805051H143.658851L304.31756 655.100502h152.333506v-241.076631zM336.201317-37.83982c-49.774088 0-90.337312 40.563224-90.337312 90.337312s40.563224 90.337312 90.337312 90.337312 90.337312-40.563224 90.337312-90.337312c0.177132-49.774088-40.386092-90.337312-90.337312-90.337312zM750.158764 896c-29.049645 0-52.431067-23.558554-52.431067-52.431067v-738.463242c0-29.049645 23.558554-52.431067 52.431067-52.431067h188.468431c0-99.902439 80.949317-180.674624 180.674624-180.674624 99.902439 0 180.674624 80.949317 180.674624 180.674624h128.243556c29.049645 0 52.431067 23.558554 52.431067 52.431067V843.568933c0 29.049645-23.558554 52.431067-52.431067 52.431067H750.158764z m369.320187-933.83982c-49.774088 0-90.337312 40.563224-90.337312 90.337312s40.563224 90.337312 90.337312 90.337312 90.337312-40.563224 90.337312-90.337312-40.563224-90.337312-90.337312-90.337312z m0 0"  horiz-adv-x="1632" />

    
    <glyph glyph-name="duihao" unicode="&#59023;" d="M1326.515605 753.279179L1209.186832 870.607952 475.444207 136.86532699999998 152.352287 459.519453 35.023514 342.19068000000004l322.654126-322.654126v-0.437794l117.328773-117.328773h0.437794l117.328773 117.328773v0.437794z"  horiz-adv-x="1352" />

    
    <glyph glyph-name="shaixuan1" unicode="&#58922;" d="M855.651328 831.488c10.752 0 20.1728-2.56 28.2624-7.68 7.3728-4.8128 13.312-11.4688 17.1008-19.456a40.6528 40.6528 0 0 0-7.7824-46.8992L675.836928 523.9808a159.6416 159.6416 0 0 1-43.4176-108.9536v-443.1872a33.28 33.28 0 0 0-11.0592-25.2928 37.376 37.376 0 0 0-45.3632-4.7104l-163.9424 97.1776a34.6112 34.6112 0 0 0-17.408 29.9008v343.04c0 40.2432-15.4624 78.9504-43.52 108.9536L130.761728 757.4528A40.6528 40.6528 0 0 0 122.876928 804.352a46.7968 46.7968 0 0 0 17.1008 19.456 51.3024 51.3024 0 0 0 28.2624 7.7824h687.3088z m0 64.512H168.342528C67.990528 896 14.230528 785.408 80.278528 714.752l220.16-236.544a97.0752 97.0752 0 0 0 26.4192-66.2528v-343.04c0-34.5088 18.7392-66.56 49.4592-84.6848l164.0448-97.0752c17.5104-10.4448 36.4544-15.1552 54.8864-15.1552 54.3744 0 104.6528 41.3696 104.6528 99.84V415.0272c0 24.3712 9.4208 47.9232 26.4192 66.1504l217.4976 233.472C1009.660928 785.6128 956.003328 896 855.753728 896z"  horiz-adv-x="1024" />

    
    <glyph glyph-name="quanyi" unicode="&#58891;" d="M521.728 655.36c51.712 0 96.768 42.496 96.256 96.256v0.512c0-53.76-44.544-95.744-96.256-95.744C467.968 656.896 425.472 701.44 425.472 752.64v-0.512C424.96 700.416 467.456 655.36 521.728 655.36zM207.872 553.984v0.512c-0.512-54.272-41.984-98.304-96.256-98.304C57.856 456.704 15.872 501.248 15.36 552.448v-0.512c0-51.712 42.496-96.768 96.256-96.768 54.272 0 96.256 44.544 96.256 98.816zM917.504 456.704c-53.76 0-95.744 44.544-96.256 95.744v-0.512c0-51.2 42.496-96.256 96.256-96.256S1013.76 500.736 1013.76 551.936v0.512c-0.512-51.2-42.496-95.744-96.256-95.744zM244.224 30.72h-17.408c-16.384 0-30.208 11.776-35.328 28.672L123.904 400.384c-0.512 1.536-0.512 3.072-0.512 4.608 0-2.048 0-4.096 0.512-5.632l68.096-340.992c5.12-16.384 18.944-28.672 35.328-28.672h584.192c18.944 0 32.768 11.264 35.328 28.16L915.456 399.36c1.024 6.144 0.512 12.288-2.048 17.92L244.224 30.72zM797.184-10.752h-552.96c-18.944 0-35.328-16.384-35.328-35.328s16.384-35.328 35.328-35.328h552.96c18.944 0 35.328 16.384 35.328 35.328s-16.384 35.328-35.328 35.328zM111.616 648.192c51.2 0 95.744-39.424 96.256-93.696v0.512c0 54.272-45.056 94.208-96.256 94.208S15.36 605.184 15.36 553.472v-0.512c0.512 51.2 45.056 95.232 96.256 95.232zM521.728 847.872c51.2 0 95.744-44.544 96.256-95.744V752.64c0 51.2-45.056 96.256-96.256 96.256S425.472 806.4 425.472 752.64v-0.512c0 53.76 45.056 95.744 96.256 95.744zM917.504 647.68c51.712 0 95.744-44.544 96.256-95.744v0.512c0 51.2-44.544 96.256-96.256 96.256-51.2 0-96.256-45.056-96.256-96.256v-0.512c0 51.2 45.056 95.744 96.256 95.744zM135.68 431.616c9.728 9.728 20.992 11.776 32.768 7.168l188.416-58.88 131.584 230.4c7.168 11.776 18.944 18.944 30.208 18.944 11.776 0 23.552-7.168 30.208-18.944l131.584-230.4 188.928 58.88c11.776 4.608 26.112 0 32.768-7.168 4.608-4.608 8.192-9.728 10.24-14.848h0.512c-2.048 5.632-5.632 11.264-10.24 15.872-7.168 7.168-20.992 11.264-32.768 7.168L680.96 380.928l-131.584 230.4c-7.168 11.776-18.432 18.944-30.208 18.944-11.264 0-23.552-7.168-30.208-18.944l-131.584-230.4L168.448 440.32c-11.776 5.12-23.552 2.56-32.768-7.168-8.192-6.144-13.312-17.92-12.8-28.672 0 10.752 4.608 21.504 12.8 27.136zM111.616 456.704c54.272 0 96.256 44.544 96.256 98.816 0 54.272-45.056 94.208-96.256 94.208S15.36 605.184 15.36 553.472s42.496-96.768 96.256-96.768zM424.96 753.152c0-51.2 42.496-96.256 96.256-96.256 51.712 0 96.768 42.496 96.256 96.256 0 51.2-45.056 96.256-96.256 96.256S424.96 806.912 424.96 753.152zM917.504 552.96m-96.256 0a96.256 96.256 0 1 1 192.512 0 96.256 96.256 0 1 1-192.512 0ZM903.168 433.152c-7.168 7.168-20.992 11.264-32.768 7.168l-188.928-58.88-131.584 230.4c-7.168 11.776-18.432 18.944-30.208 18.944-11.264 0-23.552-7.168-30.208-18.944l-131.584-230.4-189.44 58.88c-11.776 5.12-23.552 2.56-32.768-7.168-9.728-7.168-14.336-20.992-11.776-32.768l68.096-340.992c5.12-16.384 18.944-28.672 35.328-28.672h17.408l669.184 386.048c-2.56 6.144-6.144 11.264-10.752 16.384z"  horiz-adv-x="1024" />

    
    <glyph glyph-name="icon1" unicode="&#58884;" d="M734.7743312 70.47978778000004L273.28941852 70.47978778000004c-89.39004118 0-162.11259273 72.72255154-162.11259273 162.11391833L111.17682579 460.29926628c0 89.38209271 72.72255154 162.09934572 162.11259273 162.09934572l420.7183167 0c14.4909928 0 26.24116069-11.74751926 26.24116069-26.23851206 0-14.48966719-11.74884487-26.23718775-26.24116069-26.23718777L273.28941852 569.92291347c-60.45707069 0-109.63821851-49.17452367-109.63821851-109.62364719L163.65120001 232.59370480999996c0-60.45707069 49.18114782-109.63821851 109.63821851-109.63821851l461.48491268 0c60.45574637 0 109.6368942 49.18114782 109.6368942 109.63821851 0-0.01324701-0.15101695 274.7406807-0.15101695 378.14614276 0 51.29538384 14.41680799 90.79820626 42.86228515 117.42088422 38.43643227 35.96717561 87.89974284 33.14289569 90.00338177 32.98922882 14.46184886-0.96041406 25.40526957-13.45904385 24.4448555-27.91691849-0.95776414-14.46317317-13.36631478-25.3853997-27.91029433-24.44353119-0.08610621 0-29.58472651 1.15249635-51.10595017-19.34472553-17.13776045-16.32836334-25.82122801-42.8079728-25.82122801-78.70626214 0-103.39089073 0.15234126-378.13289574 0.15234126-378.13289575C896.88559962 143.20233931999996 824.16437238 70.47978778000004 734.7743312 70.47978778000004zM694.57206199 403.91567517L314.3090333 403.91567517c-14.48966719 0-26.23718775 11.74751926-26.23718776 26.23586215 0 14.4909928 11.74751926 26.23851207 26.23718776 26.23851207l380.2630274 0c14.48966719 0 26.23718775-11.74751926 26.23718776-26.23851207C720.80924846 415.66319573 709.0630535 403.91567517 694.57206199 403.91567517zM694.57206199 237.80643501999998L314.3090333 237.80643501999998c-14.48966719 0-26.23718775 11.74884487-26.23718776 26.23718775 0 14.4909928 11.74751926 26.23851207 26.23718776 26.23851208l380.2630274 0c14.48966719 0 26.23718775-11.74619495 26.23718776-26.23851208C720.80924846 249.55660420000004 709.0630535 237.80643501999998 694.57206199 237.80643501999998zM869.67475209-17.68622216999995m-52.47437422 0a51.27925002 51.27925002 0 1 1 104.94874843 0 51.27925002 51.27925002 0 1 1-104.94874843 0ZM150.09545156-17.68622216999995m-52.47437423 0a51.27925002 51.27925002 0 1 1 104.94874845 0 51.27925002 51.27925002 0 1 1-104.94874845 0Z"  horiz-adv-x="1024" />

    
    <glyph glyph-name="shengji" unicode="&#59013;" d="M616.0384-63.761067c-9.557333 0-16.042667 6.417067-15.9744 16.042667v63.8976c0 9.557333 6.3488 15.9744 15.9744 15.9744 9.557333 0 15.9744-6.417067 15.9744-15.9744v-63.8976c0-9.557333-6.417067-16.042667-15.9744-16.042667m-191.829333 0c-9.557333 0-15.9744 6.417067-15.9744 16.042667v63.8976c0 9.557333 6.417067 15.9744 15.9744 15.9744s15.9744-6.417067 15.9744-15.9744v-63.8976c0-9.557333-6.3488-16.042667-15.9744-16.042667m95.914666-63.8976c-9.557333 0-15.9744 6.417067-15.9744 15.9744v127.863467c0 9.557333 6.417067 15.9744 15.9744 15.9744s15.9744-6.417067 15.9744-15.9744v-127.863467c0-9.557333-6.417067-15.9744-15.9744-15.9744m-105.472 268.4928h207.735467c28.808533 31.9488 63.965867 92.706133 63.965867 92.706134 3.140267 3.208533 6.3488 6.3488 12.765866 6.3488s9.557333-3.140267 12.765867-6.3488c19.182933-25.6 32.017067-54.340267 38.365867-86.289067a144.9984 144.9984 0 0 1 99.1232 137.4208c0 60.757333-38.365867 115.029333-95.914667 134.212267a17.544533 17.544533 0 0 0-9.557333 16.042666v22.3232c0 163.0208-86.357333 316.484267-223.778134 402.773334-140.629333-86.289067-223.709867-239.752533-223.709866-402.773334V431.786667a17.6128 17.6128 0 0 0-9.557334-15.9744c-54.408533-22.391467-92.7744-73.5232-92.7744-134.280534 0-60.757333 41.5744-118.237867 99.1232-137.4208 3.208533 28.740267 15.9744 57.5488 35.157334 83.080534 3.208533 3.208533 6.3488 6.417067 12.765866 6.417066s9.557333-3.208533 12.765867-9.557333c15.9744-25.6 38.365867-57.5488 60.757333-83.1488m214.152534-31.9488H408.234667a24.234667 24.234667 0 0 0-12.834134 6.3488 344.064 344.064 0 0 0-57.5488 76.731733c-9.557333-19.114667-15.9744-41.5744-15.9744-63.8976 0-3.208533-3.208533-9.557333-6.417066-12.834133-3.140267-3.140267-9.557333-3.140267-12.765867-3.140267-83.080533 15.9744-140.629333 89.429333-140.629333 172.578134 0 67.106133 38.365867 131.072 102.263466 159.812266v12.765867A504.6272 504.6272 0 0 0 513.706667 891.972267c6.417067 3.208533 12.834133 3.208533 15.9744 0 153.463467-92.706133 249.378133-258.8672 249.378133-434.722134v-12.765866c63.8976-28.740267 105.472-89.4976 105.472-159.812267 0-83.080533-60.757333-156.603733-140.629333-172.578133-3.208533 0-9.6256 0-12.834134 3.140266-3.208533 3.208533-6.3488 6.417067-6.3488 12.834134 0 22.3232-6.417067 47.9232-19.182933 67.106133-16.042667-22.391467-41.5744-60.757333-60.757333-79.872-6.417067-3.2768-12.765867-6.417067-15.9744-6.417067M523.332267 486.058667a60.0064 60.0064 0 1 0 0 119.944533 60.0064 60.0064 0 0 0 0-119.944533m0 159.9488a99.9424 99.9424 0 1 1 0-199.953067 99.9424 99.9424 0 0 1 0 199.953067"  horiz-adv-x="1024" />

    
    <glyph glyph-name="zshujuronghe" unicode="&#58887;" d="M742.6 520.5H288.1c-26.5 0-48.1 21.6-48.1 48.1v141c0 26.5 21.6 48.1 48.1 48.1h454.4c26.5 0 48.1-21.6 48.1-48.1v-141c0.1-26.5-21.5-48.1-48-48.1z m-454.5 196c-3.7 0-6.9-3.1-6.9-6.9v-141c0-3.7 3.1-6.9 6.9-6.9h454.4c3.7 0 6.9 3.1 6.9 6.9v141c0 3.7-3.1 6.9-6.9 6.9H288.1zM742.6 267.7H288.1c-26.5 0-48.1 21.6-48.1 48.1v141c0 26.5 21.6 48.1 48.1 48.1h454.4c26.5 0 48.1-21.6 48.1-48.1v-141c0.1-26.5-21.5-48.1-48-48.1zM288.1 463.8c-3.7 0-6.9-3.1-6.9-6.9v-141c0-3.7 3.1-6.9 6.9-6.9h454.4c3.7 0 6.9 3.1 6.9 6.9v141c0 3.7-3.1 6.9-6.9 6.9H288.1zM742.6 15H288.1c-26.5 0-48.1 21.6-48.1 48.1v141c0 26.5 21.6 48.1 48.1 48.1h454.4c26.5 0 48.1-21.6 48.1-48.1v-141c0.1-26.5-21.5-48.1-48-48.1zM288.1 211c-3.7 0-6.9-3.1-6.9-6.9v-141c0-3.7 3.1-6.9 6.9-6.9h454.4c3.7 0 6.9 3.1 6.9 6.9v141c0 3.7-3.1 6.9-6.9 6.9H288.1zM694.2 615.8H336.5c-0.8 0-1.4 0.6-1.4 1.4v43.2c0 1.1 0.9 2 2 2h356.5c1.1 0 2-0.9 2-2v-43.2c0-0.7-0.6-1.4-1.4-1.4zM693.6 363.1H335.9c-0.8 0-1.4 0.6-1.4 1.4v43.2c0 1.1 0.9 2 2 2H693c1.1 0 2-0.9 2-2v-43.2c0-0.8-0.6-1.4-1.4-1.4zM694.2 110H336.5c-0.8 0-1.4 0.6-1.4 1.4v43.2c0 1.1 0.9 2 2 2h356.5c1.1 0 2-0.9 2-2v-43.2c0-0.8-0.6-1.4-1.4-1.4zM844.4 365.7h-40.2c-11.4 0-20.6 9.2-20.6 20.6s9.2 20.6 20.6 20.6h40.2c58.3 0 105.7 47.4 105.7 105.7s-47.4 105.7-105.7 105.7h-40.2c-11.4 0-20.6 9.2-20.6 20.6 0 11.4 9.2 20.6 20.6 20.6h40.2c81.1 0 147-65.9 147-147s-65.9-146.8-147-146.8zM220.2 112.6H180c-81.1 0-147 65.9-147 147s65.9 147 147 147h40.2c11.4 0 20.6-9.2 20.6-20.6 0-11.4-9.2-20.6-20.6-20.6H180c-58.3 0-105.7-47.4-105.7-105.7S121.6 153.9 180 153.9h40.2c11.4 0 20.6-9.2 20.6-20.6 0-11.4-9.2-20.7-20.6-20.7z"  horiz-adv-x="1024" />

    
    <glyph glyph-name="arrowdown" unicode="&#58901;" d="M512.133 271.01800000000003l-292.16 292.15500001c-12.27 12.28-32.186 12.28-44.45700001-1e-8-12.28099999-12.27-12.281-32.186 0-44.457l314.38800001-314.388c12.27-12.28 32.186-12.28 44.45699999 0l314.38700002 314.388c6.14 6.136 9.211 14.183 9.21099999 22.228s-3.071 16.092-9.211 22.228c-12.27 12.28-32.186 12.28-44.457 0l-292.159-292.15499999z"  horiz-adv-x="1024" />

    
    <glyph glyph-name="xiangji" unicode="&#58932;" d="M512 516.332308c-94.523077 0-170.141538-75.618462-170.141538-170.141539s75.618462-170.141538 170.141538-170.141538c94.523077 0 170.141538 75.618462 170.141538 170.141538s-75.618462 170.141538-170.141538 170.141539z m414.326154 85.070769H803.446154c-17.329231 0-34.658462 33.083077-40.96 48.836923l-36.233846 78.769231c-6.301538 15.753846-25.206154 42.535385-42.535385 42.535384H341.858462c-17.329231 0-37.809231-26.781538-42.535385-42.535384l-31.507692-81.92c-6.301538-15.753846-23.630769-45.686154-40.96-45.686154H103.975385c-56.713846 0-103.975385-15.753846-103.975385-72.467692v-463.163077c0-56.713846 47.261538-102.4 102.4-102.4h823.926154c56.713846 0 97.673846 47.261538 97.673846 102.4V528.935385c0 56.713846-40.96 72.467692-97.673846 72.467692zM512 89.403077c-141.784615 0-255.212308 115.003077-255.212308 255.212308 0 141.784615 115.003077 255.212308 255.212308 255.212307 141.784615 0 256.787692-115.003077 256.787692-255.212307 0-140.209231-115.003077-255.212308-256.787692-255.212308z"  horiz-adv-x="1024" />

    
    <glyph glyph-name="zhifu" unicode="&#59125;" d="M784.998 267.366h-51.61v-56.73h51.61v56.73zM860.16 896H163.84C73.318 896 0 822.682 0 732.16v-696.32C0-54.682 73.318-128 163.84-128h696.32c90.522 0 163.84 73.318 163.84 163.84V732.16C1024 822.682 950.682 896 860.16 896z m0-717.824c0-33.28-28.262-60.416-62.771-60.416h-570.88c-34.509 0-62.669 27.238-62.669 60.416v253.85h696.32v-253.85z m0 344.371H163.84v67.38c0 33.177 28.262 60.313 62.669 60.313h570.88c34.509 0 62.771-27.136 62.771-60.314v-67.379z m-141.517-255.18h-51.61v-56.73h51.61v56.73z m-63.59 0h-51.61v-56.73h51.61v56.73z"  horiz-adv-x="1024" />

    
    <glyph glyph-name="daijiesuanjine" unicode="&#58885;" d="M840.13524069 615.55486655l11.12322738 30.5888778c8.34242136 22.24645641 5.56161368 47.27372048-5.56161373 69.52017855s-30.5888778 38.93129916-52.83533578 47.27372049L428.57578641 885.2931577c-22.24645641 8.34242136-47.27372048 5.56161368-69.52017854-5.56161531s-38.93129916-30.5888778-44.49291284-52.83533424c0-2.78080763-2.78080763-8.34242136 0-11.12322896h-2.78080767c-25.02726407 5.56161368-47.27372048 2.78080763-69.52017848-11.12322904-19.46565034-13.90403504-36.15049313-33.36968546-41.71210684-55.61614182L167.17991661 607.2124452200001C122.68700377 587.74679481 94.87893203 546.034688 94.87893203 495.98015989v-481.0796312c0-69.52017851 55.61614186-125.1363204 125.13632039-125.13632039h583.96949516c69.52017851 0 125.1363204 55.61614186 125.13632039 125.13632039V495.98015989c0 58.39694953-38.93129916 105.67067002-88.98582728 119.57470666zM370.1788369 807.43055782c2.78080763 8.34242136 8.34242136 13.90403504 16.6848427 19.46565033 8.34242136 2.78080763 16.6848427 5.56161368 25.02726407 2.78080607l364.28573218-122.35551272c8.34242136-2.78080763 13.90403504-8.34242136 19.46565034-16.68484274 2.78080763-8.34242136 5.56161368-16.6848427 2.78080773-25.02726406l-13.90403672-44.49291446h-30.5888778c2.78080763 22.24645641 0 41.71210678-11.12322899 61.17775717-13.90403504 22.24645641-33.36968546 36.15049313-55.61614184 41.71210684L372.95964456 801.86894412c-5.56161368 2.78080763-5.56161368 5.56161368-2.78080766 5.5616137z m-114.01309139-72.30098456c2.78080763 8.34242136 8.34242136 16.6848427 13.90403509 19.46564873 8.34242136 5.56161368 16.6848427 5.56161368 25.02726405 2.7808077L667.72519815 668.39020239c8.34242136-2.78080763 16.6848427-8.34242136 19.46565042-13.90403667 5.56161368-8.34242136 5.56161368-16.6848427 2.78080765-25.0272641v-5.5616137H228.35767381l27.8080717 111.23228534z m614.55837292-720.22904457c0-36.15049313-30.5888778-66.7393709-66.73937085-66.73937086h-583.96949516c-36.15049313 0-66.7393709 30.5888778-66.73937085 66.73937086V495.98015989c0 36.15049313 30.5888778 66.7393709 66.73937085 66.73937087h583.96949516c36.15049313 0 66.7393709-30.5888778 66.73937085-66.73937087v-481.0796312zM587.08179222 406.99433259l-61.17775718-119.57470665c-5.56161368-11.12322902-11.12322902-22.24645641-13.90403504-30.5888778-2.78080763 8.34242136-8.34242136 16.6848427-13.90403504 27.80807172l-66.73937093 122.35551273h-52.83533577l88.98582727-166.84842721h-72.30098454V195.65299087999995h91.76663494v-25.02726402h-91.76663494v-41.71210683h91.76663494v-75.08179221h47.27372048v77.86259987h91.76663497v38.93129917h-91.76663497V195.65299087999995h91.76663497v44.4929145h-72.3009846l88.98582733 166.84842721h-55.61614189"  horiz-adv-x="1024" />

    
    <glyph glyph-name="wuliuxinxi" unicode="&#58903;" d="M921.6 128h-28.2c-11.9 58.4-63.5 102.4-125.4 102.4s-113.6-44-125.4-102.4H407c-11.9 58.4-63.5 102.4-125.4 102.4S168 186.4 156.2 128h-2.6c-42.4 0-76.8 34.4-76.8 76.8V614.4c0 42.4 34.4 76.8 76.8 76.8h460.8c42.4 0 76.8-34.4 76.8-76.8v-51.2h128c14.1 0 25.6-11.5 25.6-25.6L947.2 342v-188.4c0-14.1-11.5-25.6-25.6-25.6zM179.2 332.8h153.6c14.1 0 25.6 11.5 25.6 25.6 0 14.1-11.5 25.6-25.6 25.6H179.2c-14.1 0-25.6-11.5-25.6-25.6 0-14.1 11.5-25.6 25.6-25.6z m0 102.4h256c14.1 0 25.6 11.5 25.6 25.6 0 14.1-11.5 25.6-25.6 25.6h-256c-14.1 0-25.6-11.5-25.6-25.6 0-14.1 11.5-25.6 25.6-25.6zM512 588.8H179.2c-14.1 0-25.6-11.5-25.6-25.6 0-14.1 11.5-25.6 25.6-25.6H512c14.1 0 25.6 11.5 25.6 25.6 0 14.1-11.5 25.6-25.6 25.6z m307.2-102.4c0 14.1-11.5 25.6-25.6 25.6h-51.2c-14.1 0-25.6-11.5-25.6-25.6v-153.6c0-14.1 11.5-25.6 25.6-25.6h128c14.1 0 25.6 11.5 25.6 25.6l-76.8 153.6zM281.6 179.2c42.4 0 76.8-34.4 76.8-76.8s-34.4-76.8-76.8-76.8-76.8 34.4-76.8 76.8 34.4 76.8 76.8 76.8z m486.4 0c42.4 0 76.8-34.4 76.8-76.8s-34.4-76.8-76.8-76.8-76.8 34.4-76.8 76.8 34.4 76.8 76.8 76.8z"  horiz-adv-x="1024" />

    
    <glyph glyph-name="up" unicode="&#58973;" d="M572.147-65.43600000000004l0 574.282 240.405-1e-8-299.672 324.80200001-299.714-324.80200001 240.365 0 0-574.28199999 118.616 0z"  horiz-adv-x="1025" />

    
    <glyph glyph-name="delivery" unicode="&#58928;" d="M67.584-23.55200000000002c0-20.48 16.896-36.864 36.864-36.864h815.104c20.48 0 36.864 16.896 36.864 36.864v629.76H67.584v-629.76z m517.632 333.312h223.232V235.51999999999998h-223.232v74.24z m-74.24-147.968h297.472v-74.24H510.976v74.24z m-18.432 481.28H66.56l89.088 156.672c13.824 18.432 35.328 28.672 58.368 28.672h278.528v-185.344z m464.896 0h-425.984V828.4159999999999h278.528c23.04 0 44.544-11.264 58.368-28.672L957.44 643.072z"  horiz-adv-x="1024" />

    
    <glyph glyph-name="jiangbei" unicode="&#58888;" d="M448.8 273.2h126.5v-126.5H448.8zM609.7 99.2H414.3v61.2c0 11.5 9.4 20.9 20.9 20.9h153.7c11.5 0 20.9-9.4 20.9-20.9v-61.2zM708.1-120.2H315.9c-11.5 0-20.9 9.4-20.9 20.9V78.8c0 11.5 9.4 20.9 20.9 20.9h392.3c11.5 0 20.9-9.4 20.9-20.9v-178.1c-0.1-11.6-9.4-20.9-21-20.9zM638.3-68H385.7c-5.8 0-10.4 4.7-10.4 10.4V43.3c0 5.8 4.7 10.4 10.4 10.4h252.6c5.8 0 10.4-4.7 10.4-10.4v-100.8c0-5.8-4.6-10.5-10.4-10.5zM257.2 780.2v-284.8c-83.8 11.7-148.5 83.8-148.5 170.8v114h148.5m52.2 52.2H98.2c-23.1 0-41.8-18.7-41.8-41.8v-124.5C56.4 542 157 441.4 281.1 441.4h28.3v391zM915.3 780.2v-108.8c0-88-64.4-161.3-148.5-175.2v284h148.5m10.5 52.2H714.6v-390.9h23.1c126.9 0 229.8 102.9 229.8 229.8V790.6c0.1 23.1-18.7 41.8-41.7 41.8zM512 248.1c-162.7 0-294.6 131.9-294.6 294.6V868.4c0 10.9 8.9 19.8 19.8 19.8h549.5c10.9 0 19.8-8.9 19.8-19.8v-325.7C806.6 380 674.7 248.1 512 248.1zM787.3 437.6L640.1 631 433.6 483l167-221.4c43.9 14.5 74.6 33.9 103.9 58.3 34.9 29.1 62.9 67.8 82.8 117.7zM522.3 717.7l31.3-63.3c1.5-3.1 4.5-5.2 7.9-5.7l69.9-10.2c8.6-1.2 12-11.8 5.8-17.8l-50.6-49.3c-2.5-2.4-3.6-5.9-3-9.2l11.9-69.6c1.5-8.5-7.5-15-15.2-11L512.9 517l-67.4-35.4c-7.7-4-16.6 2.5-15.2 11l11.9 69.6c0.6 3.4-0.5 6.8-3 9.2l-50.6 49.3c-6.2 6-2.8 16.6 5.8 17.8l69.9 10.2c3.4 0.5 6.3 2.6 7.9 5.7l31.3 63.3c3.9 7.8 15 7.8 18.8 0z"  horiz-adv-x="1024" />

    
    <glyph glyph-name="ziyuan" unicode="&#58929;" d="M1002.349256 697.935787l-164.385278 72.971026L320.751762 527.937353v-155.965544l-90.211433 40.09397V568.031323l517.212216 242.96946L573.744714 888.382146a120.281911 120.281911 0 0 1-84.197337 0L61.744714 697.935787A112.664056 112.664056 0 0 1 0 602.913078v-445.84495a113.064996 113.064996 0 0 1 64.150352-95.423649l426.599844-182.427564a120.281911 120.281911 0 0 1 80.18794 0l426.599844 182.427564a113.465936 113.465936 0 0 1 63.348473 95.423649V602.913078A112.664056 112.664056 0 0 1 1002.349256 697.935787z m-72.971026-393.321848v-26.061081l-82.994518-27.664839v-22.452624l82.192639 26.061081v-26.061081l-82.994519-27.664839v-70.565388l-56.532498-18.443226v72.169146l-71.768206-23.655442v26.061081l71.768206 23.655442v22.051684l-71.768206-23.655443v26.061081l57.334377 20.046985-75.376664 95.423649 56.131558 18.844166 61.343775-76.980423 60.942835 120.281911 56.532498 19.646046-75.777604-147.545811z"  horiz-adv-x="1063" />

    
    <glyph glyph-name="yanzhengma" unicode="&#58893;" d="M798.72 335.36c0-81.92-28.16-199.68-279.04-289.28l-7.68-2.56-5.12 2.56c-253.44 92.16-281.6 209.92-281.6 289.28V645.12h40.96c161.28 0 230.4 69.12 230.4 69.12l15.36 12.8 15.36-15.36s69.12-69.12 230.4-69.12h40.96v-307.2z m66.56 396.8h-25.6c-215.04 0-309.76 92.16-309.76 92.16L512 844.8l-20.48-20.48S399.36 732.16 181.76 732.16h-25.6L128 734.72v-414.72C128 209.92 166.4 51.2 504.32-69.12l7.68-2.56 7.68 2.56C857.6 51.2 896 209.92 896 320V734.72l-30.72-2.56zM486.4 238.08L350.72 358.4c-20.48 17.92-23.04 51.2-5.12 71.68 17.92 20.48 51.2 23.04 71.68 5.12l64-56.32 120.32 120.32c20.48 20.48 53.76 20.48 71.68 0 20.48-20.48 20.48-53.76 0-71.68L486.4 238.08z"  horiz-adv-x="1024" />

    
    <glyph glyph-name="weibiaoti-1-copy" unicode="&#58886;" d="M383.02415296 455.01783487c30.92080006-93.41108864 116.54763153-93.41108864 146.38728504 0a53.40865537 53.40865537 0 0 1 21.62293736 33.94801113c1.29737605 13.40622121 0 31.56948853-12.75753362 31.56948852-3.02721108 43.24587471-27.24490052 80.86978538-80.86978537 80.86978539s-80.22109692-32.21817611-83.24830801-80.86978539c-13.40622121 0-15.13605623-18.16326731-12.75753274-31.56948852a50.38144342 50.38144342 0 0 1 21.62293734-33.94801113z m512.46361282-159.79350624a17.94703782 17.94703782 0 0 1-24.86637792 0L644.22923453 68.18348681999998v213.63462058A100.76288772 100.76288772 0 0 1 562.71076155 379.55378319l-34.59669959 7.35179905a80.22109692 80.22109692 0 0 0-144.00876243 0l-34.59669959-7.35179905a99.89796976 99.89796976 0 0 1-80.6535559-97.08698819v-265.96212765a64.86881207 64.86881207 0 0 1 64.8688112-64.86881208 31.56948853 31.56948853 0 0 1 32.21817698-32.2181761h182.0651312a32.43440559 32.43440559 0 0 1 32.21817698 32.2181761 64.86881207 64.86881207 0 0 1 64.86881207 64.86881208v1.94606451l250.82607141 251.47475988a17.08212075 17.08212075 0 0 1 0 25.51506551zM1100.25698089 812.01252856H244.63735459A179.68660858 179.68660858 0 0 1 65.38320411 632.32591997v-488.24592335a177.95677357 177.95677357 0 0 1 107.03353935-164.55055236 43.24587471 43.24587471 0 0 1 59.46307751 38.27259914 30.70457058 30.70457058 0 0 1-21.62293737 29.19096504 103.79009879 103.79009879 0 0 0-69.19339919 97.08698818V632.32591997a102.92518171 102.92518171 0 0 0 101.84403515 103.14141033h856.26831478a102.49272273 102.49272273 0 0 0 102.70895222-102.70895135v-488.67838233a103.35763982 103.35763982 0 0 0-102.06026376-103.14141033H758.83080242a38.27259913 38.27259913 0 1 1 0-76.54519825h341.42617847a179.68660858 179.68660858 0 0 1 179.037921 179.68660858V632.32591997A179.68660858 179.68660858 0 0 1 1100.25698089 812.01252856z m0 0M1093.12141219 481.61404694h-233.52772292a12.97376224 12.97376224 0 0 0 0 25.73129586h233.52772292a12.97376224 12.97376224 0 0 0 0-25.73129586z m0 0M1093.12141219 560.3215391900001h-233.52772292a12.97376224 12.97376224 0 0 0 0 25.731295h233.52772292a12.97376224 12.97376224 0 0 0 0-25.731295z m0 0"  horiz-adv-x="1391" />

    
    <glyph glyph-name="tongzhi1" unicode="&#58892;" d="M510.2-41.9c-20.7 0-44 12.8-69.2 37.9L248.9 188.2c-0.9 0.9-2.1 1.4-3.3 1.4h-87.1c-53 0.1-96.2 43.2-96.2 96.2v202c0.1 53 43.2 96.2 96.2 96.2h87.1c1.2 0 2.4 0.5 3.3 1.4L441 777.5C465.8 802.4 489.1 815 510 815c22 0 47.6-15.2 47.6-58v-740.4c0-20-5.2-35.3-15.5-45.6-8.3-8.3-19.6-12.9-31.9-12.9zM158.4 526.2c-21.1 0-38.3-17.2-38.3-38.3V286c0-21.1 17.2-38.3 38.3-38.3h101c7.6 0 15.1-3.1 20.4-8.5L481.9 37c3.7-3.7 7-6.6 10-9.2 0.9-0.7 2-1.1 3.1-1.1 0.7 0 1.3 0.1 2 0.4 1.7 0.8 2.7 2.4 2.7 4.3v711c0 1.8-1.1 3.5-2.7 4.3-0.6 0.3-1.3 0.4-2 0.4-1.1 0-2.2-0.4-3.1-1.1-3.5-3-6.9-6.1-10.1-9.4l-202-201.9c-5.5-5.5-12.7-8.5-20.5-8.5H158.4z m521.3-364.3c-10.9 0-20.7 6.1-25.7 15.8-5 9.7-4.1 21.2 2.2 30.1l13.3 18.2c35.3 47.9 65.8 89.3 65.8 160.9 0 74.2-27.1 110-61.4 155.3-6 7.9-12 15.8-17.8 23.9-8.7 12.9-5.6 30.4 7.2 39.6 5 3.6 10.8 5.5 16.9 5.5 9.1 0 17.5-4.1 23-11.3 5.5-7.6 11.1-15.2 16.8-22.6 35.9-47.5 73.1-96.6 73.1-190.3 0-90.5-40.9-146.1-77-195.2l-13-17.7c-5.4-7.6-14.1-12-23.3-12h-0.1zM794.3 47.6c-11.3 0-21.7 6.7-26.4 17-4.7 10.3-2.9 22.5 4.6 31 68.1 77.8 131.2 166.9 131.2 291.2 0 124.4-63 213.5-131.2 291.2-5.1 5.8-7.6 13.3-7.1 21 0.5 7.7 4 14.8 9.8 19.9 5.3 4.6 12.1 7.2 19.1 7.2 8.3 0 16.3-3.6 21.8-9.8 72-82.1 145.6-185.4 145.6-329.4 0-144-73.6-247.3-145.6-329.4-5.6-6.3-13.5-9.9-21.8-9.9z"  horiz-adv-x="1024" />

    
    <glyph glyph-name="dianpu" unicode="&#59142;" d="M177.12097 370.346667c12.660364-2.730667 25.724121-4.158061 38.849939-4.158061 64.54303 0 120.428606 32.457697 146.432 79.313455 24.669091-60.881455 86.233212-104.106667 158.130424-104.106667 68.949333 0 128.527515 39.067152 155.61697 95.169939 25.662061-45.552485 79.065212-72.579879 150.062545-72.579878 97.993697 0 166.291394 96.504242 166.291394 183.109818V779.481212a31.030303 31.030303 0 0 1-31.030303 31.030303H61.626182a31.030303 31.030303 0 0 1-31.030303-31.030303v-232.385939c0-87.970909 57.530182-157.354667 146.525091-176.748606zM92.656485 748.450909h837.756121v-201.355636c0-55.978667-45.552485-121.049212-104.230788-121.049212-31.557818 0-104.882424 7.664485-104.882424 78.537697a45.862788 45.862788 0 0 1-91.663515 0c0-55.792485-48.965818-101.158788-109.164606-101.158788-59.298909 0-107.582061 45.366303-107.582061 101.158788 0 25.662061-20.573091 48.15903-47.321212 49.120969-30.72 0-49.772606-25.475879-49.772606-49.120969 0-55.668364-71.183515-85.457455-125.517576-73.572849-60.229818 13.125818-97.652364 57.592242-97.652363 116.084364V748.450909zM901.709576-42.139152a31.030303 31.030303 0 0 1 31.030303 31.030304V328.455758a31.030303 31.030303 0 1 1-62.060606 0v-308.534303H147.704242V339.968a31.030303 31.030303 0 1 1-62.060606 0v-351.076848a31.030303 31.030303 0 0 1 31.030303-31.030304h785.035637z"  horiz-adv-x="1024" />

    
    <glyph glyph-name="kefu" unicode="&#58986;" d="M362 328.6s0-137.3 151.1-137.3c151.2 0 151.2 137.3 151.2 137.3s-145.1-132.7-302.3 0z m428.5 55.9c0 153.2-124.2 277.3-277.3 277.3-153.2 0-277.4-124.2-277.4-277.3 0-75 29.8-143 78.1-192.9 22-19.8 45.9-37.2 72.3-50.9 14.3-7.4 30.2-14.9 46.8-21.7 25.4-7.6 52.3-11.8 80.1-11.8 153.2-0.1 277.4 124.1 277.4 277.3zM513.1 148.7c-130.2 0-235.7 105.6-235.7 235.8 0 130.2 105.6 235.7 235.7 235.7 130.2 0 235.7-105.5 235.7-235.7 0.1-130.2-105.5-235.8-235.7-235.8z m353 322.8c-39 158.7-182.3 276.4-353 276.4-170.6 0-313.8-117.6-352.9-276.2 0 0-97.9-15.5-93.6-113.9 4.3-98.4 107.6-104.4 107.6-104.4 1.2-3.1 22.9 3.1 30.7 4.4-16.1 39-25 81.8-25 126.7 0 184 149.2 333.1 333.2 333.1s333.1-149.2 333.1-333.1c0-146.8-94.9-271.4-226.8-315.8-8.5-2.9-17.4 0.9-17.4 0.9s-22.3 4.2-50.4-3.7c-13.8-4-19.7-18.6-18.9-31.5 1-15.4 6.8-26.4 22.9-28.8 20.7-3.2 50-6.9 61.1 15.2 3 6 6.3 17.1 13.3 19.5 102 34.6 183.6 113.2 222.2 213.1 0 0 102.7 12 105.7 106.7 3.1 94.6-91.8 111.4-91.8 111.4z"  horiz-adv-x="1024" />

    
    <glyph glyph-name="wuliu" unicode="&#59505;" d="M864 156h0.4M800.2 397.2h-96v96c0 17.6-14.4 32-32 32s-32-14.4-32-32v-128c0-17.6 14.4-32 32-32h128c17.6 0 32 14.4 32 32s-14.4 32-32 32zM129.6 687.7c-0.3-1.7-0.4-3.4-0.4-5.2M161.2 714.6c-2.2 0-4.3-0.2-6.3-0.6M954.5 408.7L827.8 603.8c-5.3 10.2-15.9 17.2-28 17.3H594.5v93.6c0 35.2-28.8 64-64 64h-402c-35.2 0-64-28.8-64-64v-578c0-35.2 28.8-64 64-64h66.6c15.4-48.5 60.8-83.6 114.4-83.6s99 35.1 114.4 83.6h106.6c2.4 0 4.7 0.1 7 0.4h107.3c15.3-48.7 60.8-84 114.5-84s99.2 35.3 114.5 84h53.5c16.7 0 30.5 12.9 31.9 29.3 0.1 1.2 0.2 2.5 0.2 3.7v280c0 0.6 0 1.3-0.1 1.9 0.9 7.1-0.7 14.4-4.8 20.7z m-644-355.5h-1c-17 0-32.3 7.6-42.5 19.6-8.4 9.8-12.5 22.5-12.5 36.4 0 10 1.7 19.5 6.3 27.6 9.6 17 27.8 28.4 48.7 28.4h1c30.9 0 56-25.1 56-56s-25.1-56-56-56z m220 117.5v-1.6c0-16.8-13-30.5-29.5-31.9h-74.7c-12.6 52.8-60.1 92-116.7 92-56.8 0-104.3-39.4-116.8-92.4h-0.2c-35.2 0-61.7-1.2-64 33v4.3c0 0.2 0.1 0.4 0.1 0.6h-0.1V670.8c0 6.5 0.3 12.1 1 16.9h0.1c1.9 11.9 10.4 21.6 21.7 25.2 5.7 1.3 12.7 1.8 21.2 1.8h314c8 0 14.6-0.5 20-1.6 13.2-3.9 22.8-16.2 22.8-30.7h0.7c0.3-3.6 0.4-7.5 0.4-11.8v-499.9z m250.2-113.3s-0.1 0-0.1-0.1c-0.8-0.3-1.7-0.7-2.6-1-0.2-0.1-0.4-0.1-0.5-0.2-0.7-0.3-1.5-0.5-2.2-0.7-0.2-0.1-0.5-0.1-0.7-0.2-0.7-0.2-1.4-0.4-2.1-0.5-0.3-0.1-0.6-0.1-0.9-0.2-0.7-0.1-1.4-0.3-2-0.4-0.3-0.1-0.6-0.1-0.9-0.2l-2.1-0.3c-0.3 0-0.6-0.1-0.9-0.1-0.7-0.1-1.5-0.1-2.2-0.2-0.3 0-0.5 0-0.8-0.1-1-0.1-2-0.1-3.1-0.1h-0.1c-1 0-1.9 0-2.9 0.1-0.4 0-0.8 0.1-1.1 0.1-0.6 0-1.2 0.1-1.8 0.2-0.4 0-0.9 0.1-1.3 0.2-0.5 0.1-1.1 0.1-1.6 0.2s-0.9 0.2-1.4 0.2l-1.5 0.3c-0.5 0.1-0.9 0.2-1.4 0.3-0.5 0.1-1 0.2-1.5 0.4-0.5 0.1-0.9 0.3-1.4 0.4-0.5 0.1-1 0.3-1.4 0.5-0.4 0.1-0.9 0.3-1.3 0.5-0.5 0.2-0.9 0.4-1.4 0.5-0.4 0.2-0.9 0.3-1.3 0.5l-1.5 0.6c-0.4 0.2-0.8 0.3-1.2 0.5-0.7 0.3-1.4 0.7-2.1 1.1-0.4 0.2-0.8 0.5-1.2 0.7-0.5 0.3-1 0.6-1.6 0.9-0.4 0.2-0.7 0.5-1.1 0.7-0.4 0.3-0.9 0.6-1.3 0.9-0.4 0.2-0.7 0.5-1.1 0.8l-1.2 0.9c-0.4 0.3-0.7 0.5-1.1 0.8-0.4 0.3-0.8 0.6-1.2 1-0.3 0.3-0.7 0.6-1 0.9-0.4 0.3-0.7 0.7-1.1 1-0.3 0.3-0.7 0.6-1 0.9l-1.1 1.1c-0.3 0.3-0.6 0.6-0.9 1-0.3 0.4-0.7 0.7-1 1.1-0.2 0.3-0.5 0.5-0.7 0.8-8.2 9.7-13.1 22.3-13.1 36 0 10.2 2.7 19.8 7.5 28 0.1 0.2 0.3 0.4 0.4 0.6 0.1 0.2 0.3 0.4 0.4 0.7 0.4 0.6 0.8 1.3 1.2 1.9 0.1 0.2 0.3 0.4 0.4 0.6 0.3 0.5 0.7 0.9 1 1.4 0.2 0.2 0.3 0.4 0.5 0.6 0.4 0.6 0.9 1.2 1.4 1.7 0.1 0.2 0.3 0.3 0.4 0.5 0.4 0.4 0.8 0.9 1.2 1.3 0.2 0.2 0.3 0.4 0.5 0.6 0.5 0.5 1 1.1 1.5 1.6l0.4 0.4c0.4 0.4 0.9 0.9 1.4 1.3l0.5 0.5c0.6 0.5 1.1 1 1.7 1.5l0.3 0.3c0.5 0.4 1.1 0.8 1.6 1.3 0.2 0.1 0.3 0.2 0.5 0.4 0.6 0.5 1.3 0.9 1.9 1.4 0.1 0 0.1 0.1 0.2 0.1 0.6 0.4 1.2 0.8 1.9 1.2 0.1 0.1 0.3 0.2 0.4 0.3l2.1 1.2h0.1c0.7 0.4 1.4 0.7 2.1 1.1 0.1 0.1 0.3 0.1 0.4 0.2 1.5 0.7 3.1 1.4 4.6 2 0.1 0 0.3 0.1 0.4 0.1 1.6 0.6 3.2 1.1 4.9 1.5 0.1 0 0.3 0.1 0.4 0.1 1.6 0.4 3.3 0.8 5 1 0.2 0 0.3 0 0.5 0.1 1.7 0.3 3.4 0.4 5.1 0.5h0.6c0.9 0 1.7 0.1 2.6 0.1 0.8 0 1.7 0 2.5-0.1h0.7c0.8 0 1.5-0.1 2.2-0.2h0.5c0.7-0.1 1.4-0.2 2.2-0.3 0.3 0 0.6-0.1 0.9-0.1l1.8-0.3c0.3-0.1 0.7-0.1 1-0.2 0.6-0.1 1.1-0.3 1.7-0.4 0.4-0.1 0.7-0.2 1-0.3 0.4-0.1 0.9-0.2 1.3-0.4 0.6-0.2 1.1-0.3 1.7-0.5 0.4-0.1 0.8-0.2 1.1-0.4 0.4-0.1 0.8-0.3 1.3-0.5 0.3-0.1 0.5-0.2 0.8-0.3 0.8-0.3 1.7-0.7 2.5-1.1 0.1-0.1 0.3-0.1 0.4-0.2 0.5-0.2 1-0.5 1.5-0.7 0.1-0.1 0.2-0.1 0.3-0.2 18.2-9.3 30.6-28.1 30.6-49.9-0.3-23.4-14.6-43.4-35-51.8z m114.8 113.8h-0.2c0-0.7 0.1-1.3 0.1-2 0-13.4-8.2-24.8-19.9-29.6-13.5 51.6-60.3 89.6-116.1 89.6-56.6 0-104.1-39.2-116.7-92h-15.2c-17.6 0-32.9 14.4-33 32.1V523c-0.1 0.8 0 1.6 0 2.4 0 16.7 13 30.3 29.3 31.8h158.1L895.5 382v-210.8z"  horiz-adv-x="1024" />

    
    <glyph glyph-name="dianpu1" unicode="&#59071;" d="M1007.222 249.644c-65.567 0-121.711 39.855-144.673 96.025a154.663 154.663 0 0 0-286.235 0c-22.936-56.221-79.144-96.025-144.647-96.025a154.277 154.277 0 0 0-143.118 96.025c-22.948-56.221-79.131-96.025-144.647-96.025a154.945 154.945 0 0 0-44.393 6.518v-263.556c0-66.34 54.266-120.606 120.606-120.606h710.959c66.339 0 120.606 54.267 120.606 120.606V256.034a158.134 158.134 0 0 0-44.393-6.428zM1049.147 753.512H98.66L0 495.33c0-77.28 64.14-141.42 143.066-141.42s144.712 62.482 144.712 141.42c0-77.28 64.128-141.42 143.066-141.42s144.712 62.482 144.712 141.42c0-77.28 64.14-141.42 143.066-141.42s143.066 62.482 143.066 141.42c0-77.28 64.128-141.42 144.712-141.42 78.938 0 144.711 62.482 144.711 141.42l-102.028 258.182zM164.446 797.34h822.206c27.963 0 49.33 21.38 49.33 49.33S1014.615 896 986.652 896H164.446c-27.962 0-49.33-21.38-49.33-49.33s21.368-49.33 49.33-49.33z"  horiz-adv-x="1151" />

    
    <glyph glyph-name="tuangouzhaoji" unicode="&#58907;" d="M822.980499 97.118648H376.759728c-46.191312 0-85.931609 34.968595-96.560424 84.984437L204.266767 538.526757c-3.553178 16.460327-14.934611 28.451022-27.212017 28.451022h-36.955098c-19.619276 0-35.434501 15.958581-35.434501 35.731453 0 19.777991 15.815225 35.731453 35.434501 35.731453h36.955098c46.191312 0 85.92137-34.973715 96.555304-84.984437l75.937657-356.418553c3.548058-16.470566 14.934611-28.466382 27.212017-28.466381h446.220771c19.624396 0 35.454981-15.943222 35.454981-35.721213 0-19.777991-15.953461-35.731453-35.454981-35.731453z m0 0M412.071353 411.165299l-48.592523 125.313517c-5.20177 13.280898 15.810105 25.39447 43.518749 25.39447h377.266593c27.713763 0 48.592523-12.256928 43.544349-25.39447l-48.602763-125.313517-365.618929-0.895974c-0.133116 0-1.3926 0.655341-1.515476 0.895974z m0 0M514.07418 556.907029h-19.10729c-19.624396 0-35.439621 15.958581-35.439621 35.716093 0 19.793351 15.810105 35.746812 35.439621 35.746812h19.10729c19.619276 0 35.424262-15.953461 35.424262-35.746812 0-19.762632-15.938102-35.716093-35.424262-35.716093z m0 0M737.320242 207.241562H457.254054c-38.357937 0-71.258111 27.570407-78.343988 65.482917l-48.592523 260.303556a80.68376 80.68376 0 0 0 16.956953 66.245776 79.245082 79.245082 0 0 0 61.381915 29.091004c19.609036 0 35.424262-15.953461 35.424262-35.746813 0-19.757512-15.815225-35.716093-35.424262-35.716093-3.414942 0-5.56528-1.797068-6.835003-3.205028-1.259484-1.510357-2.529207-3.942287-1.899466-7.270191l48.607883-260.329155c0.747499-4.198279 4.418433-7.265071 8.729349-7.265071h280.066188c4.305796 0 7.843614 3.066792 8.734469 7.265071l48.582283 260.329155c0.645101 3.430301-0.624622 5.882711-1.889226 7.270191a8.488716 8.488716 0 0 1-6.824763 3.205028h-169.477368c-19.603916 0-35.424262 15.958581-35.424262 35.716093 0 19.793351 15.820345 35.746812 35.424262 35.746813h169.477368c23.781716 0 46.186192-10.598095 61.376795-29.091004a80.740079 80.740079 0 0 0 16.956952-66.245776l-48.592522-260.303556c-7.096116-37.91763-40.01165-65.482917-78.349108-65.482917z m0 0M423.841895-37.385005c-26.331403 0-47.845024 21.687696-47.845025 48.244373 0 26.546437 21.518741 48.218774 47.845025 48.218774 26.321163 0 47.834785-21.672337 47.834784-48.218774 0-26.551557-21.385625-48.244373-47.834784-48.244373z m0 0M423.841895 33.560795c12.400283 0 22.522232-10.188507 22.522232-22.701427 0-12.497561-10.121949-22.711667-22.522232-22.711667-12.410523 0-22.527352 10.208986-22.527353 22.711667-0.00512 12.51292 10.116829 22.701427 22.527353 22.701427m0 51.050052c-40.375159 0-73.152457-33.05377-73.152457-73.751479 0-40.70795 32.777298-73.777079 73.152457-73.777079 40.370039 0 73.152457 33.069129 73.152456 73.777079 0 40.69771-32.787537 73.75148-73.152456 73.751479z m0 0M720.491286-37.385005c-26.331403 0-47.839905 21.687696-47.839905 48.244373 0 26.546437 21.508502 48.218774 47.839905 48.218774 26.321163 0 47.829665-21.672337 47.829665-48.218774-0.00512-26.551557-21.380505-48.244373-47.829665-48.244373z m0 0M720.491286 33.560795c12.405403 0 22.517113-10.188507 22.517113-22.701427 0-12.497561-10.116829-22.711667-22.517113-22.711667s-22.532472 10.208986-22.532472 22.711667c-0.00512 12.51292 10.127069 22.701427 22.532472 22.701427m0 51.050052c-40.375159 0-73.157577-33.05377-73.157577-73.751479 0-40.70795 32.782418-73.777079 73.157577-73.777079s73.137097 33.069129 73.137097 73.777079c0 40.69771-32.767058 73.75148-73.137097 73.751479zM78.082875 879.242722C35.060752 879.242722 0 843.890138 0 800.499386 0 757.129113 35.060752 721.771409 78.082875 721.771409c43.032363 0 78.082875 35.357703 78.082875 78.727977 0 43.390753-35.050512 78.743336-78.082875 78.743336z m0-110.440345c-17.325582 0-31.430776 14.233191-31.430776 31.697009 0 17.468938 14.105194 31.717488 31.430776 31.717488 17.325582 0 31.446136-14.24855 31.446136-31.717488 0-17.463818-14.120554-31.697009-31.446136-31.697009zM75.47687-126.757156h-0.255993c-10.505938 0.122876-18.861538 8.806147-18.728421 19.388883l1.264603 88.69633c0.117757 10.459859 8.601353 18.892257 18.984415 18.892257h0.250872c10.495698-0.138236 18.856418-8.806147 18.728422-19.409362l-1.269723-88.670731c-0.122876-10.464979-8.606473-18.897377-18.974175-18.897377z m0 0M139.12688-63.839285v-0.261112a19.066332 19.066332 0 0 0-19.235287-18.897377l-87.959071 1.305563c-10.383061 0.102397-18.733541 8.657671-18.733541 19.11753v0.250873a19.030493 19.030493 0 0 0 19.235287 18.892257l87.959071-1.290203c10.377942-0.097277 18.733541-8.652551 18.733541-19.117531z m0 0M940.445282-88.563054a39.479185 39.479185 0 0 1 19.552718-34.149418 38.818724 38.818724 0 0 1 39.105436 0 39.509904 39.509904 0 0 1 19.562957 34.149418 39.515024 39.515024 0 0 1-19.562957 34.159658 38.818724 38.818724 0 0 1-39.105436 0 39.484305 39.484305 0 0 1-19.552718-34.159658z m0 0M586.586656 798.195452a26.469639 26.469639 0 0 1 13.091463-22.855023 26.044691 26.044691 0 0 1 26.208527 0 26.454279 26.454279 0 0 1 13.106823 22.855023 26.495238 26.495238 0 0 1-13.106823 22.890862 26.044691 26.044691 0 0 1-26.208527 0 26.510598 26.510598 0 0 1-13.091463-22.890862z m0 0M940.373604 882.201997v-39.31535m0-12.748433c-6.963 0-12.646036 5.744475-12.646036 12.748433V882.201997c0 7.029558 5.677917 12.768913 12.646036 12.768913 6.95788 0 12.656276-5.739355 12.656276-12.768913v-39.31535a12.666516 12.666516 0 0 0-12.656276-12.748433z m0-53.338627v-39.31023m0-12.763793c-6.963 0-12.646036 5.759834-12.646036 12.768913v39.31023c0 7.024438 5.677917 12.768913 12.646036 12.768913 6.95788 0 12.656276-5.744475 12.656276-12.768913v-39.31023a12.681875 12.681875 0 0 0-12.656276-12.768913z m-71.63186 85.127793h38.854563m0-12.748434h-38.854563c-6.94764 0-12.646036 5.744475-12.646037 12.748434 0 7.009078 5.693276 12.753553 12.646037 12.753553h38.982559c6.95788 0 12.656276-5.744475 12.656276-12.753553a12.768913 12.768913 0 0 0-12.784272-12.748434z m0 0M973.156022 809.853357h38.982559m0-12.748434h-38.982559c-6.95788 0-12.656276 5.744475-12.656276 12.748434 0 7.009078 5.693276 12.753553 12.656276 12.753553h38.982559c6.94764 0 12.646036-5.744475 12.646036-12.753553s-5.693276-12.748433-12.646036-12.748434z m0 0M963.668935 833.205005l27.44753 27.8264m-27.44753-40.574833a12.86107 12.86107 0 0 0-8.985342 3.696534 12.748433 12.748433 0 0 0 0 18.001402l27.580647 27.805921a12.51804 12.51804 0 0 0 17.847807 0 12.758673 12.758673 0 0 0 0-17.996283l-27.580647-27.698404a12.277407 12.277407 0 0 0-8.862465-3.80917z m0 0M991.116465 758.680428l-27.44753 27.82128m27.44753-40.574833a12.88155 12.88155 0 0 0-8.975102 3.696533l-27.601126 27.811041a12.814992 12.814992 0 0 0 0 17.996282 12.51804 12.51804 0 0 0 17.847807 0l27.601126-27.80592a12.820111 12.820111 0 0 0 0-18.001403 12.405403 12.405403 0 0 0-8.872705-3.696533z m0 0M917.21139 833.205005l-27.45777 27.8264m27.45777-40.574833a12.88667 12.88667 0 0 0-8.985341 3.696534l-27.601127 27.80592a12.799632 12.799632 0 0 0 0 17.996283 12.51804 12.51804 0 0 0 17.847807 0l27.590887-27.805921a12.784272 12.784272 0 0 0 0-18.001402 12.354205 12.354205 0 0 0-8.852226-3.691414z m0 0M889.75362 758.680428l27.45777 27.82128m-27.45777-40.574833a12.87643 12.87643 0 0 0-8.985342 3.696533 12.799632 12.799632 0 0 0 0 18.001403l27.590887 27.80592a12.502681 12.502681 0 0 0 17.837567 0 12.779153 12.779153 0 0 0 0-17.996282l-27.601127-27.811041a12.52828 12.52828 0 0 0-8.841985-3.696533z m0 0"  horiz-adv-x="1024" />

    
    <glyph glyph-name="sim_card_chip" unicode="&#59272;" d="M106.666667 149.333333V618.666667c0 46.933333 38.4 85.333333 85.333333 85.333333h640c46.933333 0 85.333333-38.4 85.333333-85.333333v-469.333334c0-46.933333-38.4-85.333333-85.333333-85.333333H192c-46.933333 0-85.333333 38.4-85.333333 85.333333zM917.333333 448v42.666667H661.333333c-23.466667 0-42.666667 19.2-42.666666 42.666666s19.2 42.666667 42.666666 42.666667h21.333334v42.666667h-21.333334c-46.933333 0-85.333333-38.4-85.333333-85.333334s38.4-85.333333 85.333333-85.333333h64v-128h-64c-59.733333 0-106.666667-46.933333-106.666666-106.666667s46.933333-106.666667 106.666666-106.666666h42.666667v42.666666h-42.666667c-36.266667 0-64 27.733333-64 64s27.733333 64 64 64h256v42.666667h-149.333333v128h149.333333zM362.666667 320h-64v128h64c46.933333 0 85.333333 38.4 85.333333 85.333333s-38.4 85.333333-85.333333 85.333334h-64v-42.666667h64c23.466667 0 42.666667-19.2 42.666666-42.666667s-19.2-42.666667-42.666666-42.666666H106.666667v-42.666667h149.333333v-128H106.666667v-42.666667h256c36.266667 0 64-27.733333 64-64s-27.733333-64-64-64h-42.666667v-42.666666h42.666667c59.733333 0 106.666667 46.933333 106.666666 106.666666s-46.933333 106.666667-106.666666 106.666667z"  horiz-adv-x="1024" />

    
    <glyph glyph-name="ziyuan1" unicode="&#58894;" d="M1008.19968 549.483457c-25.283951 61.44-52.084938 122.500741-76.86321 184.19358A30.72 30.72 0 0 1 898.214495 756.938272q-398.475062-0.884938-796.444445 0a30.087901 30.087901 0 0 1-34.639012-25.283951C47.915236 670.59358 25.2861 609.912099 7.208075 548.219259-17.696616 466.17284 23.769063 391.585185 103.287087 370.346667c57.015309-15.29679 106.951111 1.643457 152.841482 39.190123 30.340741-41.339259 66.62321-68.393086 116.432592-69.404444s88.493827 25.916049 121.110124 62.072098c94.309136-89.252346 167.253333-88.493827 264.343704 4.930371a164.345679 164.345679 0 0 1 16.687407-24.019753c49.050864-49.682963 138.05037-55.498272 195.571358-13.400494 53.728395 39.948642 68.393086 106.445432 37.925926 179.768889zM910.224371 279.956543c-32.110617 10.11358-61.945679 14.538272-86.72395 28.444445-36.535309 20.48-66.37037 18.962963-101.894321-4.045432-55.751111-36.282469-113.777778-36.661728-169.402469 4.67753a60.302222 60.302222 0 0 1-74.966914 3.034074c-63.209877-39.695802-126.419753-42.982716-191.399506 0.758519a67.634568 67.634568 0 0 1-51.32642 4.93037c-40.580741-12.641975-79.644444-29.202963-126.419753-47.154568 0-111.755062-0.884938-232.359506 0-352.83753 0-30.340741 22.376296-45.511111 56.888889-45.511111h688.608395C894.421902-128 910.224371-110.301235 910.224371-68.077037V190.198519zM389.374989-12.578765a15.802469 15.802469 0 0 0-31.604939 0v193.422222a15.802469 15.802469 0 0 0 31.604939 0z m131.476543 0a15.802469 15.802469 0 0 0-31.604938 0V133.815309a15.802469 15.802469 0 0 0 31.604938 0z m131.476543 0a15.802469 15.802469 0 0 0-31.604938 0V74.271605a15.802469 15.802469 0 0 0 31.604938 0zM131.731532 835.444938h724.764444c21.617778 0 44.499753 0.884938 45.005432 29.961482S879.630791 896 857.633754 896H132.86931C113.779927 896 98.103878 889.552593 97.724618 866.417778s14.159012-30.72 34.006914-30.97284zM373.57252 196.645926a15.802469 15.802469 0 0 1-15.80247-15.802469v-193.422222a15.802469 15.802469 0 0 1 31.604939 0v193.422222a15.802469 15.802469 0 0 1-15.802469 15.802469zM505.681161 150.123457a15.802469 15.802469 0 0 1-15.802469-15.802469v-146.899753a15.802469 15.802469 0 0 1 31.604939 0V133.815309A15.802469 15.802469 0 0 1 505.681161 150.123457zM636.525606 89.821235A15.802469 15.802469 0 0 1 620.723137 74.271605v-86.723951a15.802469 15.802469 0 0 1 31.604938 0V74.271605a15.802469 15.802469 0 0 1-15.802469 15.54963z"  horiz-adv-x="1024" />

    
    <glyph glyph-name="yinhangzhanghu" unicode="&#59002;" d="M924.6 761.3H99.4C44.6 761.3 0 716.7 0 661.9v-555.8c0-54.8 44.6-99.4 99.4-99.4h825.3c54.8 0 99.4 44.6 99.4 99.4V661.9c-0.1 54.8-44.7 99.4-99.5 99.4zM64 549.7h896v-75.6H64v75.6z m35.4 147.6h825.3c19.5 0 35.4-15.9 35.4-35.4v-48.2H64v48.2c0 19.5 15.9 35.4 35.4 35.4z m825.2-626.6H99.4c-19.5 0-35.4 15.9-35.4 35.4v304h896v-304c0-19.5-15.9-35.4-35.4-35.4zM194.3 165.6m-33.7 0a33.7 33.7 0 1 1 67.4 0 33.7 33.7 0 1 1-67.4 0ZM334.7 165.6m-33.7 0a33.7 33.7 0 1 1 67.4 0 33.7 33.7 0 1 1-67.4 0Z"  horiz-adv-x="1024" />

    
    <glyph glyph-name="dianpu2" unicode="&#58987;" d="M848.6 791.4c-14.2 28.3-42.4 45.2-73.6 45.2H243.3c-31.1 0-59.4-17-73.6-45.2L0 466l2.9-17c11.3-99.1 101.8-178.2 206.5-178.2 65 0 116 11.3 152.8 39.6 36.8-25.5 87.8-39.6 149.9-39.6 59.4 0 110.4 14.2 149.9 39.6 36.8-25.5 84.9-39.6 152.8-39.6 104.7 0 195.2 79.2 206.5 178.2l2.9 17-175.6 325.4zM959 457.5c-8.5-73.6-73.6-130.1-149.9-130.1-62.3 0-104.7 11.3-130.1 39.6l-19.8 19.8-19.8-17c-28.3-28.3-73.6-42.4-130.1-42.4S407.5 341.6 379.1 367l-19.8 17-19.8-17c-28.3-28.3-67.9-39.6-130.1-39.6-76.4 0-141.4 56.5-149.9 130.1l161.2 308.4c2.9 8.5 14.2 14.2 22.6 14.2h529c11.3 0 19.8-5.7 25.5-14.2L959 457.5zM282.9 553.7h449.8v-56.6H282.9v56.6z m565.7-339.4V-12H169.7V214.3h-56.6V-12c0-31.1 25.5-56.6 56.6-56.6h678.9c31.1 0 56.6 25.5 56.6 56.6V214.3h-56.6z"  horiz-adv-x="1024" />

    
    <glyph glyph-name="fuwu" unicode="&#58895;" d="M904.045714 755.565714c-102.4 96.548571-258.925714 93.622857-375.954285 20.48l-1.462858-1.462857c-8.777143-5.851429-19.017143-11.702857-27.794285-19.017143-13.165714-10.24-23.405714-19.017143-32.182857-29.257143l-7.314286-7.314285-4.388572-4.388572-19.017142-19.017143-136.045715-143.36c-10.24-7.314286-17.554286-20.48-17.554285-35.108571 0-24.868571 19.017143-43.885714 43.885714-43.885714 10.24 0 20.48 4.388571 27.794286 10.24l171.154285 179.931428 1.462857-1.462857-1.462857 1.462857s43.885714 39.497143 71.68 52.662857c80.457143 38.034286 179.931429 39.497143 247.222857-23.405714 73.142857-68.754286 89.234286-179.931429 43.885715-266.24-16.091429-27.794286-52.662857-68.754286-54.125715-71.68L542.72 50.468571c-8.777143-8.777143-23.405714-8.777143-32.182857 0L203.337143 369.371429c-16.091429 17.554286-54.125714 68.754286-54.125714 70.217142-45.348571 86.308571-14.628571 182.857143 58.514285 251.611429 39.497143 38.034286 102.4 49.737143 156.525715 49.737143h4.388571c24.868571 0 43.885714 19.017143 43.885714 43.885714 0 21.942857-16.091429 39.497143-38.034285 43.885714v1.462858c-77.531429 0-166.765714-17.554286-226.742858-73.142858C35.108571 653.165714 2.925714 499.565714 86.308571 375.222857c7.314286-10.24 14.628571-21.942857 23.405715-30.72l1.462857-1.462857c1.462857-2.925714 4.388571-4.388571 5.851428-7.314286l390.582858-406.674285c8.777143-8.777143 23.405714-8.777143 32.182857 0L892.342857 296.228571l4.388572 4.388572 26.331428 29.257143 1.462857 1.462857c111.177143 121.417143 100.937143 310.125714-20.48 424.228571z"  horiz-adv-x="1024" />

    
    <glyph glyph-name="login2" unicode="&#58957;" d="M862.72 730.112c-90.624 93.184-211.968 144.384-341.504 144.384h-12.8C378.88 874.496 257.024 824.32 165.888 733.184 75.264 641.536 25.088 520.192 25.088 390.656v-12.8c0-129.536 50.176-251.392 141.312-342.528 91.136-91.136 212.992-141.312 342.528-141.312h6.144c132.096 0 254.976 49.664 345.088 139.776 89.6 89.6 138.752 212.48 138.752 345.088v4.608c3.072 130.56-45.056 253.44-136.192 346.624z m51.712-352.768c0-79.36-13.824-141.824-44.032-196.096-69.632 51.712-189.44 78.336-355.328 78.336-15.36 0-70.144-1.024-136.704-11.264-89.088-13.824-160.768-38.912-211.968-73.728-38.912 67.584-56.832 132.608-56.832 202.752v12.8c0 105.472 41.984 205.312 117.76 281.6 75.776 75.776 176.128 117.76 281.6 117.76h6.144c105.472 0 205.312-41.984 281.6-117.76 75.776-75.776 117.76-176.128 117.76-281.6v-12.8z m-393.216-399.36h-12.8c-114.176 0-219.648 47.616-297.984 135.168 107.008 67.584 296.448 68.608 304.64 68.608 204.8 0 282.112-43.008 305.664-61.44-75.776-90.624-184.32-142.336-299.52-142.336zM512 727.04c-119.808 0-221.696-101.376-221.696-221.696 0-119.808 101.376-221.184 221.696-221.184s221.696 101.376 221.696 221.184c0 120.32-101.888 221.696-221.696 221.696z m0-358.4c-78.336 0-137.216 58.88-137.216 137.216S433.664 642.56 512 642.56s137.216-58.88 137.216-137.216S590.336 368.64 512 368.64z"  horiz-adv-x="1024" />

    
    <glyph glyph-name="youjian" unicode="&#58994;" d="M1107.934968-121.162323H213.388387C95.760516-121.162323 0-23.452903 0 96.751484V650.140903c0 47.962839 28.242581 90.508387 72.109419 108.444903 43.404387 17.639226 90.904774 7.630452 123.870968-26.19458l366.096516-375.21342a136.456258 136.456258 0 0 1 98.436129-41.785806c37.194323 0 72.241548 14.864516 98.436129 41.785806l297.950968 305.746581a36.897032 36.897032 0 0 0 52.058839 0.759742c14.567226-14.137806 14.864516-37.524645 0.759742-52.091871l-297.950968-305.746581A209.655742 209.655742 0 0 0 660.645161 241.829161a209.094194 209.094194 0 0 0-151.12258 64.016516L143.459097 680.893935a39.110194 39.110194 0 0 1-43.569549 9.414194 41.984 41.984 0 0 1-26.326709-40.299355V96.619355c0-79.607742 62.695226-144.350968 139.627355-144.350968h894.612645c77.09729 0 139.627355 64.743226 139.627355 144.350968V676.764903c0 79.607742-62.695226 144.350968-139.627355 144.350968h-748.510968a36.797935 36.797935 0 0 0 0 73.562839h748.643097c117.594839 0 213.223226-97.709419 213.223226-217.913807v-580.013419c0.132129-120.237419-95.661419-217.913806-213.223226-217.913807z"  horiz-adv-x="1321" />

    
    </font>
</defs>
</svg>
